<svg id="bootprints-light_down" xmlns="http://www.w3.org/2000/svg" xmlns:xlink="http://www.w3.org/1999/xlink" viewBox="0 0 84.574211 194.10414" shape-rendering="geometricPrecision" text-rendering="geometricPrecision">
<style><![CDATA[
#bootprints-light_down-u-bootprints-light-down__right {animation: bootprints-light_down-u-bootprints-light-down__right_c_o 3000ms linear infinite normal forwards}@keyframes bootprints-light_down-u-bootprints-light-down__right_c_o { 0% {opacity: 0} 16.666667% {opacity: 0.75} 33.333333% {opacity: 1} 50% {opacity: 1} 66.666667% {opacity: 1} 83.333333% {opacity: 0} 100% {opacity: 0}} #bootprints-light_down-u-bootprints-light-down__left {animation: bootprints-light_down-u-bootprints-light-down__left_c_o 3000ms linear infinite normal forwards}@keyframes bootprints-light_down-u-bootprints-light-down__left_c_o { 0% {opacity: 0} 16.666667% {opacity: 0} 33.333333% {opacity: 0} 50% {opacity: 0.75} 66.666667% {opacity: 1} 83.333333% {opacity: 0} 100% {opacity: 0}}
]]></style>
<g id="bootprints-light_down-u-layer1" transform="translate(-392.245819 193.680817)"><g id="bootprints-light_down-u-bootprints-light-down" transform="matrix(0 1-1 0 489.386536-198.504227)"><g id="bootprints-light_down-u-bootprints-light-down__right" transform="translate(-33.184101 2.563379)" opacity="0"><path id="bootprints-light_down-u-path332" d="M85.253714,91.626518c0-.07626.246369-.233186.54749-.348739.313944-.12047.455549-.06133.331957.138646-.207172.335213-.879447.495811-.879447.210093Zm33.318016-5.077747c-.24173-.163485-.14899-.467975.26466-.869025.66292-.642715.75369-.507784.34731.516248-.13194.332442-.40732.491192-.61197.352777Zm1.45327-.884239c.13248-.347917.32974-.543709.43836-.435093s.00022.393275-.24087.632576c-.34841.345816-.38893.305295-.19749-.197483Zm4.8086-1.131313c.007-.582084.0862-.7775.1757-.434259.0894.343242.0836.819492-.0131,1.058334-.0966.238842-.1698-.04199-.16261-.624075Zm.69248-.529167c0-.485069.0801-.683507.17794-.440972s.0979.639409,0,.881944-.17794.0441-.17794-.440972ZM57.059344,81.681598c.01693-.410966.100521-.494559.213136-.213136.101908.254661.08937.558932-.02785.676157s-.200604-.09113-.185286-.463021ZM123.5301,80.476274c-.11991-.194028-.0499-.352778.15557-.352778s.3736.15875.3736.352778-.07.352778-.15557.352778-.25368-.15875-.3736-.352778Zm4.79035-.911342c.0169-.410966.10052-.494559.21314-.213137.1019.254661.0894.558932-.0278.676158s-.2006-.09113-.18528-.463021Zm-.68055-.7355c-.0291-.420693-.15559-1.055693-.28116-1.411111-.1756-.496996-.1285-.554312.20396-.248217.23776.218897.36428.853897.28117,1.411111-.10647.7138-.16672.787134-.20397.248217Zm-9.19722-1.028389c.0169-.410966.10052-.494559.21313-.213137.10191.254662.0894.558932-.0278.676158s-.20061-.09114-.18529-.463021Zm6.52121-.39636c-.19144-.502778-.15092-.543299.19749-.197483.24109.239301.34948.52396.24087.632576s-.30588-.08718-.43836-.435093Zm-1.24659-.279798c0-.194027.15388-.590902.34197-.881944s.34197-.370417.34197-.176389-.15388.590903-.34197.881944-.34197.370417-.34197.176389Zm10.62822-.529166c0-.48507.0801-.683507.17794-.440973s.0979.63941,0,.881945-.17794.0441-.17794-.440972Zm-7.97052-.808965c.13248-.347917.32974-.543708.43836-.435092s.00022.393274-.24087.632575c-.34841.345817-.38893.305295-.19749-.197483Zm-80.279618-.249369c0-.194027.168119-.352777.373598-.352777s.275485.15875.155569.352777-.288035.352778-.373598.352778-.155569-.15875-.155569-.352778Zm-2.088816-.911342c.01693-.410966.100521-.494559.213137-.213137.101907.254662.08937.558932-.02785.676158s-.200604-.09113-.185286-.463021Zm86.430554,0c.0169-.410966.10052-.494559.21313-.213137.10191.254662.0894.558932-.0278.676158s-.2006-.09113-.18529-.463021Zm-11.38289-.740756c.25466-.101907.55893-.08937.67616.02785s-.0911.200603-.46302.185286c-.41097-.01693-.49456-.100521-.21314-.213136Zm6.31393-1.170124c.10148-.388055.24537-.705555.31975-.705555s.13525.3175.13525.705555-.14389.705556-.31975.705556-.23673-.3175-.13525-.705556Zm1.1884-.558565c.0169-.410966.10052-.494559.21314-.213136.10191.254661.0894.558932-.0278.676157s-.2006-.09113-.18528-.463021Zm-2.27732-1.395351c-.12099-.315279-.2001-1.076188-.17581-1.690909.0367-.929951.0884-.851039.30789.469825.28038,1.687638.22905,2.162173-.13208,1.221084ZM49.298233,69.334376c.01693-.410966.100521-.494559.213137-.213136.101907.254661.08937.558932-.02785.676157s-.200604-.09113-.185286-.463021ZM45.0649,68.276043c.01693-.410966.100521-.494559.213136-.213137.101908.254662.08937.558932-.02785.676158s-.200604-.09113-.185286-.463021Zm1.086184-.852547c0-.485069.08007-.683506.177936-.440972s.09786.63941,0,.881945-.177936.0441-.177936-.440973Zm82.744856,0c-.10148-.388055-.0406-.705555.13524-.705555s.31975.3175.31975.705555-.0609.705556-.13524.705556-.21827-.3175-.31975-.705556Zm-6.57271-1.616898c.0169-.410966.10052-.494559.21314-.213136.1019.254661.0894.558932-.0278.676157s-.2006-.09113-.18528-.463021ZM44.006566,64.748265c.01693-.410966.100521-.494559.213137-.213137.101907.254662.08937.558933-.02785.676158s-.200604-.09113-.185286-.463021Zm79.022224,0c.0169-.410966.10052-.494559.21313-.213137.10191.254662.0894.558933-.0278.676158s-.20061-.09113-.18529-.463021Zm.6777.184967c0-.205478.15875-.275485.35278-.155569s.35278.288035.35278.373598-.15875.155569-.35278.155569-.35278-.168119-.35278-.373598Zm-82.169368-.537745c.01693-.410966.100521-.494559.213137-.213136.101907.254661.08937.558932-.02785.676157s-.200604-.09113-.185286-.463021Zm1.38326-4.203935c0-.291042.153768-.529167.341706-.529167s.250329.238125.138646.529167-.265451.529167-.341706.529167-.138646-.238125-.138646-.529167Zm2.645834-.881944c.119916-.194028.288034-.352778.373597-.352778s.155569.15875.155569.352778-.168119.352777-.373597.352777-.275485-.15875-.155569-.352777Z" fill="var(--svg-fill, #fff)" stroke-width="0.352778"/><path id="bootprints-light_down-u-path330" d="M104.33157,92.264933c.0169-.410969.10052-.494559.21313-.213138.10191.25466.0894.55893-.0278.676159s-.20061-.09114-.18529-.463021Zm15.90284-1.910881c0-.48507.0801-.683507.17794-.440972s.0979.639409,0,.881944-.17794.0441-.17794-.440972Zm-20.670516-.249368c-.191446-.502779-.150926-.543299.197485-.197485.241091.239303.349481.52396.240871.632576s-.305878-.08718-.438356-.435091Zm-12.03924-2.491943c.12041-.120409.467004-.255336.770209-.299837s.452762.01761.332355.138015-.467003.255335-.770209.299836-.452762-.01761-.332355-.138014Zm34.770726-.412869c0-.182577.15693-.428947.34874-.547489.19997-.123592.25911.01801.13864.331957-.23452.611159-.48738.722979-.48738.215532Zm.13204-1.596682c-.10923-.284641-.13052-.721204-.0473-.970139s.23492-.01605.33714.517529c.19958,1.041831.0349,1.298941-.28983.45261Zm-19.95374-.07624c.25466-.101907.55893-.08937.67616.02785s-.0911.200604-.46302.185286c-.41097-.01693-.49456-.100521-.21314-.213136Zm16.58055-1.058333c.25466-.101907.55893-.08937.67616.02785s-.0911.200604-.46302.185286c-.41097-.01693-.49456-.100521-.21314-.213136Zm6.444-1.728688c.0169-.410966.10052-.494559.21314-.213137.1019.254661.0894.558932-.0278.676158s-.2006-.09113-.18528-.463021ZM61.779487,82.56947c-.127894-.206936-.137263-.47152-.02082-.587963s.211715-.01714.211715.22068.15875.334281.352777.214365.352778-.04991.352778.155569c0,.484382-.596537.482618-.89645-.0026Zm59.281173-2.445974c-.11992-.194027-.0499-.352777.15557-.352777s.37359.15875.37359.352777-.07.352778-.15556.352778-.25369-.15875-.3736-.352778Zm6.55424-.205787c.0169-.410966.10052-.494559.21313-.213136.10191.254661.0894.558932-.0278.676157s-.20061-.09113-.18529-.463021Zm-2.46945-1.411111c.0169-.410966.10052-.494559.21314-.213136.1019.254661.0894.558932-.0278.676157s-.2006-.09113-.18528-.463021Zm3.175,0c.0169-.410966.10052-.494559.21314-.213136.1019.254661.0894.558932-.0278.676157s-.2006-.09113-.18528-.463021Zm-4.39399-1.748128c-.12098-.315279-.20372-.917439-.18386-1.338132.0228-.48355.14266-.311618.32577.467434.30816,1.311035.22436,1.825185-.14191.870698ZM53.458717,72.803358c-.43881-.559526-.426332-.572003.133193-.133193.339548.266292.617361.544104.617361.617361c0,.290348-.289696.10347-.750554-.484168Zm74.304713-.440973c-.11991-.194027-.0499-.352777.15557-.352777s.3736.15875.3736.352777-.07.352778-.15557.352778-.25368-.15875-.3736-.352778Zm-1.23472-2.645833c0-1.131829.0653-1.991724.14522-1.91088.26512.268374.35241,3.471117.10144,3.722089-.13566.135664-.24666-.67938-.24666-1.811209Zm-5.23596.176389c0-.48507.0801-.683507.17793-.440972s.0979.639409,0,.881944-.17793.0441-.17793-.440972Zm-75.522295-.558565c.01693-.410966.100521-.494559.213137-.213136.101907.254661.08937.558932-.02785.676157s-.200604-.09113-.185286-.463021Zm55.997665-1.093534c.25466-.101907.55893-.08937.67616.02785s-.0911.200604-.46302.185286c-.41097-.01693-.49456-.100521-.21314-.213136Zm22.34685-.817346c0-.485069.0801-.683506.17794-.440972s.0979.63941,0,.881945-.17794.0441-.17794-.440973Zm-79.077921.02082c0-.182577.156932-.428947.348737-.547489.199976-.123592.259118.01801.138646.331958-.234524.611158-.487383.722978-.487383.215531Zm78.875091-1.384583c-.15196-.245887-.18103-.542338-.0646-.658781.31573-.315723.65997.148626.48944.660203-.11949.358484-.20259.358206-.42485-.0014ZM61.407697,64.865858l-.672037-.79375.793749.672037c.74593.631549.954349.915463.672038.915463-.06694,0-.42413-.357188-.79375-.79375ZM43.301011,63.689932c.01693-.410966.100521-.494559.213137-.213137.101907.254662.08937.558932-.02785.676158s-.200604-.09113-.185286-.463021Zm-4.938889-.352778c.01693-.410966.100521-.494559.213137-.213137.101907.254662.08937.558933-.02785.676158s-.200603-.09114-.185286-.463021Zm23.286065-3.814307c-.332213-.400292-.324092-.494888.03792-.441755.48743.07154.801679.534255.540329.795606-.08553.08553-.345747-.0737-.578253-.353851Z" fill="var(--svg-fill, #fff)" stroke-width="0.352778"/><path id="bootprints-light_down-u-path328" d="M104.35941,91.059607c0-.485069.0801-.683506.17794-.440972s.0979.63941,0,.881945-.17794.0441-.17794-.440973Zm18.9943-1.234722c0-.291041.0624-.529166.13865-.529166s.23002.238125.34171.529166.0493.529167-.13865.529167-.34171-.238125-.34171-.529167ZM82.431492,88.590163c0-.194028.16812-.352778.373599-.352778s.275484.15875.155568.352778-.288036.352778-.373599.352778-.155568-.15875-.155568-.352778Zm5.409258-.513648c0-.282507.132292-.431888.293984-.331958s.29398.331071.29398.513648-.132292.331958-.29398.331958-.293984-.231142-.293984-.513648Zm34.63102-.191908c-.11992-.194027-.0499-.352777.15557-.352777s.37359.15875.37359.352777-.07.352778-.15556.352778-.25369-.15875-.3736-.352778Zm-4.82865-2.357654c.25466-.101907.55893-.08937.67616.02785s-.0911.200604-.46302.185286c-.41097-.01693-.49456-.100521-.21314-.213136Zm2.00643-.817345c.11991-.194028.28803-.352778.37359-.352778s.15557.15875.15557.352778-.16812.352777-.3736.352777-.27548-.15875-.15556-.352777Zm9.05153-.705556c0-.485069.0801-.683507.17794-.440972s.0979.639409,0,.881944-.17794.0441-.17794-.440972Zm-4.91275-1.411111c0-.679097.0726-.95691.16134-.617361s.0887.895173,0,1.234722-.16134.06174-.16134-.617361Zm-1.08447-5.997222c0-.48507.0801-.683507.17793-.440973s.0979.63941,0,.881945-.17793.0441-.17793-.440972Zm7.06863-.881945c.007-.582083.0863-.777499.17569-.434258s.0836.819491-.0131,1.058333c-.0966.238842-.1698-.04199-.16261-.624075ZM63.734271,71.833219c.455698-.48507.907918-.881945,1.004932-.881945s-.196456.396875-.652155.881945-.907918.881944-1.004932.881944.196456-.396875.652155-.881944Zm28.839582.648306c.242534-.09786.639409-.09786.881944,0s.0441.177936-.440972.177936-.683507-.08007-.440972-.177936Zm.53588-.716389c.343242-.08944.819492-.08356,1.058333.01307s-.04199.169816-.624074.162626-.777501-.08625-.434259-.175698ZM126.4265,67.070719c-.10148-.388056-.0406-.705556.13524-.705556s.31975.3175.31975.705556-.0609.705555-.13524.705555-.21827-.3175-.31975-.705555Zm-88.417155-.911343c.01693-.410966.10052-.494559.213136-.213136.101907.254661.08937.558932-.02785.676157s-.200603-.09113-.185286-.463021Zm83.608335-.352778c.0169-.410966.10052-.494559.21313-.213136.10191.254661.0894.558932-.0278.676157s-.20061-.09113-.18529-.463021ZM42.225555,64.089747c-.0078-.758941.09468-.935288.378606-.651361.279028.279028.282067.573878.01073,1.040695-.331905.571014-.37993.522989-.389334-.389334Zm17.783781-.389879c-.657587-.526835-.653258-.533349.108962-.163976.436563.211558.79375.45844.79375.548628c0,.269952-.182953.191995-.902712-.384652Z" fill="var(--svg-fill, #fff)" stroke-width="0.352778"/><path id="bootprints-light_down-u-path326" d="M99.526707,94.211137c-.127892-.206936-.156873-.451908-.0644-.544382s.262135.07684.377031.376248c.238542.621634.03524.730977-.312631.168134Zm2.219363.142611c.24254-.09786.63941-.09786.88195,0s.0441.177937-.44097.177937-.68351-.08007-.44098-.177937Zm2.5855-4.55826c.0169-.410968.10052-.494559.21313-.213137.10191.254659.0894.55893-.0278.676158s-.20061-.09114-.18529-.463021Zm20.84173-1.910881c0-.485069.0801-.683506.17794-.440972s.0979.63941,0,.881945-.17794.0441-.17794-.440973Zm-23.40518-.946543c.25466-.101907.55893-.08937.67616.02785s-.0911.200604-.46302.185286c-.41097-.01693-.49456-.100521-.21314-.213136Zm25.46615-.817345c0-.194028.15875-.352778.35278-.352778s.35277.15875.35277.352778-.15875.352777-.35277.352777-.35278-.15875-.35278-.352777Zm1.57299-.729027c-.12789-.206936-.15687-.451908-.0644-.544381s.26214.07684.37703.376249c.23854.621632.0352.730976-.31263.168132Zm-5.04507-1.034862c0-.48507.0801-.683507.17794-.440972s.0979.639409,0,.881944-.17794.0441-.17794-.440972Zm6.45618.329307c-.12789-.206937-.15687-.451908-.0644-.544381s.26214.07684.37703.376248c.23855.621632.0352.730976-.31263.168133Zm-28.64868-.219708c.33954-.08873.89517-.08873,1.23472,0s.0617.161333-.61736.161333-.95691-.0726-.61736-.161333Zm24.96442-4.431127c.004-.641857.0709-.692488.34738-.264583.442.683951.442,1.058333,0,1.058333-.19403,0-.35035-.357188-.34738-.79375ZM46.64723,77.404683c-.191447-.502778-.150926-.543299.197483-.197483.241095.239301.349487.52396.240871.632576s-.305875-.08718-.438354-.435093ZM45.236119,76.34635c-.191447-.502778-.150926-.5433.197483-.197483.241095.239301.349487.52396.240871.632575s-.305875-.08718-.438354-.435092Zm77.412041-.808965c0-.194027.16812-.352777.3736-.352777s.27548.15875.15556.352777-.28803.352778-.3736.352778-.15556-.15875-.15556-.352778ZM90.832012,74.94362c.25466-.101907.558931-.08937.676159.02785s-.09114.200604-.463021.185286c-.410968-.01693-.494559-.100521-.213138-.213136Zm38.940478-.993735c.007-.582083.0863-.777499.17569-.434258s.0836.819491-.0131,1.058334c-.0966.238841-.1698-.04199-.16261-.624076Zm-86.322941-1.5875c.119916-.194027.288035-.352777.373598-.352777s.155569.15875.155569.352777-.168119.352778-.373598.352778-.275485-.15875-.155569-.352778Zm77.843201-.705555c0-.48507.0801-.683507.17793-.440972s.0979.639409,0,.881944-.17793.0441-.17793-.440972ZM43.119452,70.14231c.132479-.347917.329739-.543709.438355-.435093s.000223.393275-.240871.632576c-.348409.345816-.388931.305295-.197484-.197483Zm50.653845-.23173c.151592-.454778.635462-.53647.679097-.114653.01457.14067-.164041.319264-.396875.396875s-.359833-.04939-.282222-.282222ZM43.984118,68.746413c.0044-.641857.07084-.692488.347376-.264583.442003.683951.442003,1.058333,0,1.058333-.194028,0-.350347-.357187-.347376-.79375Zm78.583412-.887577c-.0896-.342648-.0399-.93796.11045-1.322917.20822-.533138.27927-.384685.29816.622994.0266,1.417533-.14438,1.710351-.40861.699923Zm4.92469-.816396c.12475-.477027.28466-.636939.37273-.372727.0848.254508-.0135.630469-.21848.835469-.26178.261785-.3077.12405-.15425-.462742ZM56.612569,58.363065c.254662-.101908.558933-.08937.676158.02785s-.09114.200604-.463021.185286c-.410966-.01693-.494559-.10052-.213137-.213136ZM46.123233,56.634376c.01693-.410966.100521-.494559.213137-.213136.101907.254661.08937.558932-.02785.676157s-.200604-.09113-.185286-.463021Zm8.909186.04492c0-.282507.134881-.430288.299736-.328402s.208403.333028.09677.513649c-.285265.461568-.396509.409595-.396509-.185247Zm-1.570627-.820352c-.116221-.701047-.06445-1.030151.131263-.834438.177746.177746.264106.698671.191911,1.157611-.111082.706149-.160768.656463-.323174-.323173Z" fill="var(--svg-fill, #fff)" stroke-width="0.352778"/><path id="bootprints-light_down-u-path324" d="M100.33496,94.353748c.24254-.09786.63941-.09786.88195,0s.0441.177937-.44097.177937-.68351-.08007-.44098-.177937Zm10.38753-1.706641c.007-.582083.0863-.777501.17569-.434258s.0836.819492-.0131,1.058333c-.0966.238841-.16982-.04199-.16263-.624075Zm8.2215-2.645833c-.11992-.194028-.0499-.352778.15557-.352778s.3736.15875.3736.352778-.07.352778-.15557.352778-.25368-.15875-.3736-.352778Zm8.31813-3.028009c.0169-.410966.10052-.494559.21313-.213137.10191.254662.0894.558933-.0278.676158s-.2006-.09113-.18529-.463021Zm-2.25594-.0588c-.0842-.145521-.0253-.582084.13077-.970139.24779-.61595.28699-.582348.30863.264583.0244.957087-.14058,1.222097-.4394.705556Zm-38.341355-.461789c0-.205478.15875-.275484.352778-.155569s.352778.288035.352778.373598-.15875.155569-.352778.155569-.352778-.168119-.352778-.373598Zm41.980555-.487526c0-.279591.14394-.59731.31988-.706043s.23679.120024.13524.508347c-.21541.823732-.45512.927857-.45512.197696Zm-4.93349-.264584c-.003-.328098.15335-.694654.34738-.81457.44647-.275936.44647.191075,0,.881945-.29471.456031-.34272.44672-.34738-.06737ZM103.53201,84.46862c.25466-.101907.55893-.08937.67616.02785s-.0911.200604-.46302.185286c-.41097-.01693-.49456-.100521-.21314-.213136Zm17.88142-.11179c.11992-.194028.28804-.352778.3736-.352778s.15557.15875.15557.352778-.16812.352778-.3736.352778-.27548-.15875-.15557-.352778Zm4.7625,0c0-.194028.15875-.352778.35278-.352778s.35278.15875.35278.352778-.15875.352778-.35278.352778-.35278-.15875-.35278-.352778Zm-2.08881-2.675232c.0169-.410966.10052-.494559.21313-.213136.10191.254661.0894.558932-.0278.676157s-.2006-.09113-.18529-.463021Zm3.49993.247427c0-.194028.15875-.450891.35277-.570806s.35278-.05928.35278.134749-.15875.45089-.35278.570806-.35277.05928-.35277-.134749Zm-1.03049-.600204c.0169-.410966.10052-.49456.21314-.213137.10191.254661.0894.558932-.0278.676157s-.2006-.09113-.18528-.46302Zm-26.41741-1.028936c.007-.582083.0863-.777499.1757-.434258s.0836.819491-.0131,1.058333c-.0966.238842-.1698-.04199-.16261-.624075Zm24.97845.529167c0-.194028.16812-.352778.3736-.352778s.27548.15875.15557.352778-.28804.352778-.3736.352778-.15557-.15875-.15557-.352778Zm1.63108-1.24836c-.12098-.315279-.20372-.917438-.18386-1.338132.0228-.48355.14266-.311618.32578.467434.30815,1.311035.22435,1.825185-.14192.870698ZM47.859271,78.359608c0-.194028.168119-.352778.373598-.352778s.275485.15875.155569.352778-.288035.352777-.373598.352777-.155569-.15875-.155569-.352777Zm74.463959-.911343c.0169-.410966.10052-.494559.21314-.213137.1019.254662.0894.558933-.0278.676158s-.2006-.09114-.18528-.463021Zm5.67229-2.616435c0-.48507.0801-.683507.17794-.440972s.0979.639409,0,.881944-.17794.0441-.17794-.440972Zm1.60597-2.469445c.10149-.388055.24537-.705555.31976-.705555s.13524.3175.13524.705555-.14389.705556-.31975.705556-.23673-.3175-.13525-.705556Zm-3.75048-1.616898c.0169-.410966.10052-.494559.21313-.213136.10191.254661.0894.558932-.0278.676157s-.2006-.09113-.18529-.463021Zm1.64436-1.469907c-.0929-.727604-.0309-1.473729.13779-1.658056.17774-.194244.30666.361918.30666,1.322917c0,1.993937-.21227,2.154002-.44445.335139Zm-82.023698-.08819c0-.679097.0726-.956909.161334-.617361s.08873.895174,0,1.234722-.161334.06174-.161334-.617361Zm15.1433.352778c0-.485069.08007-.683507.177937-.440972s.09786.63941,0,.881944-.177937.0441-.177937-.440972Zm-14.156008-.176394c0-.194028.153888-.590903.341974-.881944s.341973-.370417.341973-.176389-.153888.590903-.341973.881944-.341974.370417-.341974.176389ZM106.0226,67.864469c-.43881-.559526-.42633-.572003.1332-.133193.58764.460858.77451.750554.48416.750554-.0733,0-.35106-.277813-.61736-.617361Zm19.12285-1.705093c.0169-.410966.10052-.494559.21314-.213136.1019.254661.0894.558932-.0278.676157s-.2006-.09113-.18528-.463021ZM43.707783,63.895719c0-.679097.0726-.95691.161334-.617361s.08873.895173,0,1.234722-.161334.06174-.161334-.617361Zm20.990165-.796163c-.106064-.276398-.07087-.699894.0782-.941102.208985-.338144.3152-.323494.463888.06398.106065.276398.07087.699894-.0782.941102-.208984.338144-.315199.323494-.463888-.06398Zm-3.607013-3.43313c-.123592-.199975.01801-.259118.331957-.138645.611159.234523.722979.487382.215532.487382-.182577,0-.428947-.156932-.547489-.348737Zm-5.963982-.414643c.08979-.145276.396288-.174712.681116-.06541.718205.275602.64693.441889-.163247.38086-.374614-.02822-.607655-.17017-.517869-.315446Zm-1.567536-1.706064c0-.48507.08007-.683507.177936-.440972s.09786.639409,0,.881944-.177936.0441-.177936-.440972Z" fill="var(--svg-fill, #fff)" stroke-width="0.352778"/><path id="bootprints-light_down-u-path322" d="M106.68496,94.00097c.24254-.09786.63941-.09786.88195,0s.0441.177937-.44097.177937-.68351-.08007-.44098-.177937Zm4.34938-3.852704c.0169-.410968.10052-.494559.21314-.213138.1019.25466.0894.558931-.0278.676159s-.2006-.09114-.18528-.463021Zm-6.70277-2.116668c.0169-.410966.10052-.494559.21313-.213136.10191.254661.0894.558932-.0278.676157s-.20061-.09113-.18529-.463021Zm21.87222-2.822222c.0169-.410966.10052-.494559.21313-.213137.10191.254662.0894.558933-.0278.676158s-.20061-.09114-.18529-.463021Zm-19.07785-.488697c0-.187938.23812-.250329.52916-.138645s.52917.265451.52917.341706-.23813.138645-.52917.138645-.52916-.153767-.52916-.341706Zm17.02229-1.245794c.004-.776111.0762-1.052072.16054-.613248s.0812,1.073825-.007,1.411111c-.0883.337287-.15733-.02175-.15342-.797863Zm2.46233-.529166c0-.679098.0726-.95691.16133-.617361s.0887.895173,0,1.234722-.16133.06174-.16133-.617361Zm3.82656-1.264121c.0169-.410966.10052-.494559.21313-.213136.10191.254661.0894.558932-.0278.676157s-.2006-.09113-.18529-.463021Zm-7.78896-.873366c0-.399506.15181-.632547.33737-.517869s.24794.441548.13864.726376c-.27983.729231-.47601.643298-.47601-.208507Zm1.43896-.184967c.0169-.410966.10052-.494559.21313-.213137.10191.254662.0894.558933-.0278.676158s-.2006-.09113-.18529-.463021ZM48.267751,79.065163c0-.485069.08007-.683507.177936-.440972s.09786.63941,0,.881944-.177936.0441-.177936-.440972Zm8.479738-.881944c.0072-.582084.08625-.7775.175698-.434259s.08356.819492-.01307,1.058334-.169818-.04199-.162628-.624075Zm68.722891-1.5875c0-.194028.16812-.352778.3736-.352778s.27548.15875.15557.352778-.28804.352777-.3736.352777-.15557-.15875-.15557-.352777Zm2.46944-.529167c0-.291042.15377-.529167.34171-.529167s.25033.238125.13865.529167-.26545.529167-.34171.529167-.13865-.238125-.13865-.529167Zm-26.1717-.770154c.25466-.101907.55893-.08937.67616.02785s-.0911.200604-.46302.185286c-.41097-.01693-.49456-.100521-.21314-.213136Zm-2.095518-1.081929c-.43881-.559526-.426332-.572003.133195-.133193.587643.460858.774513.750554.484163.750554-.0732,0-.351064-.277813-.617358-.617361Zm6.422848-1.352315c.0169-.410966.10052-.494559.21314-.213137.10191.254662.0894.558933-.0278.676158s-.2006-.09114-.18528-.463021Zm19.92929-.348578c-.12975-.517001-.15655-1.019376-.0595-1.11639s.28255.246611.41231.763612.15655,1.019376.0595,1.11639-.28256-.246612-.41232-.763612Zm3.76794-2.091468c.004-.776112.0762-1.052073.16054-.613248s.0812,1.073824-.007,1.411111c-.0883.337286-.15734-.02175-.15342-.797863Zm-6.27708.505696c-.1279-.206937-.15688-.451909-.0644-.544382s.26213.07684.37703.376249c.23854.621632.0352.730976-.31263.168133Zm4.777-.173739c0-.302492.15875-.451873.35278-.331957s.35278.367409.35278.549986-.15875.331958-.35278.331958-.35278-.247494-.35278-.549987Zm-19.46892-.04378c.25466-.101907.55893-.08937.67616.02785s-.0911.200604-.46302.185286c-.41097-.01693-.49456-.100521-.21314-.213136Zm-56.322596-.817344c0-.48507.08007-.683507.177936-.440972s.09786.639409,0,.881944-.177936.0441-.177936-.440972Zm-14.463888-.352778c0-.485069.08007-.683507.177936-.440972s.09787.63941,0,.881944-.177936.0441-.177936-.440972Zm4.97927-1.058333c0-.873125.0688-1.230313.152883-.79375s.08409,1.150937,0,1.5875-.152883.07937-.152883-.79375ZM125.1733,67.423496c0-.485069.0801-.683506.17794-.440972s.0979.63941,0,.881945-.17794.0441-.17794-.440973ZM44.006566,67.21771c.01693-.410966.100521-.49456.213137-.213137.101907.254661.08937.558932-.02785.676157s-.200604-.09113-.185286-.46302Zm53.737241-.09702c.71899-.808315.915462-.912963.915462-.48761c0,.147355-.357187.487343-.79375.755528-.790931.485878-.791362.484927-.121712-.267918ZM45.918993,62.484608c.119916-.194028.288035-.352778.373598-.352778s.155569.15875.155569.352778-.168119.352777-.373598.352777-.275484-.15875-.155569-.352777Zm-2.617982-.911343c.01693-.410966.100521-.494559.213137-.213137.101907.254662.08937.558933-.02785.676158s-.200604-.09113-.185286-.463021Zm16.73159-.495728c-.123592-.199975.01801-.259118.331958-.138645.611158.234523.722978.487382.215532.487382-.182577,0-.428948-.156931-.54749-.348737Zm45.616079-.597806c.25466-.101907.55893-.08937.67616.02785s-.0911.200604-.46302.185286c-.41097-.01693-.49456-.100521-.21314-.213137Zm-49.67552-.523364c0-.16169.149381-.293982.331958-.293982s.413718.132292.513648.293982-.04945.293981-.331958.293981-.513648-.132291-.513648-.293981ZM50.03164,55.78183c0-.48507.08007-.683507.177936-.440972s.09786.639409,0,.881944-.177936.0441-.177936-.440972Z" fill="var(--svg-fill, #fff)" stroke-width="0.352778"/><path id="bootprints-light_down-u-path320" d="M99.911796,91.896858c.320804-2.995607-.462993-3.006999-1.192664-.01732-.471752,1.932908-.529167,2.002307-1.656535,2.002307-2.497885,0-2.709937-.542026-1.692751-4.326855.822011-3.0586.747536-3.0057,3.721548-2.643425c1.411566.171948,3.161796.258596,3.889406.192551l1.32291-.120083v3.067277c0,4.176888-.004,4.183298-2.53526,4.183298h-2.107006Zm6.706084.485666c.14274-.824618.24583-2.220097.22908-3.101068-.0426-2.242543.20154-2.467224,3.07292-2.827766c1.39865-.175621,2.67173-.398873,2.82907-.496117.30969-.191399.56335,1.116293.93691,4.830117.25671,2.552111.31932,2.448772-1.76211,2.908279l-1.02302.225848.20924-2.2407c.18335-1.963423.125-2.293302-.4715-2.665825-1.03036-.643471-1.04309-.61637-1.04309,2.220704v2.645834h-1.61851-1.61851Zm-16.94941-.04089c-.557897-.407942-.599792-.637943-.273124-1.499306.94083-2.480761.721741-4.794133-.277248-2.927507-.216574.404674-.473145.656395-.570159.559382s.01369-.531557.246009-.965651c.363675-.679533.343126-.758841-.147807-.570453-.313612.120345-.570205.06504-.570205-.122897s-.238125-.341706-.529166-.341706c-.626163,0-.631635-.03733-.179723-1.225952.276108-.726218.479707-.852723.970139-.60279.341383.173975,1.612882.530609,2.825556.792522c2.007997.433685,2.203753.556328,2.192468,1.373573-.01552,1.123615-.848911,5.055667-1.18774,5.603905-.343143.555212-1.693749.515694-2.499-.07312Zm26.86487-.106102c-.8019-.801902.0209-1.78762,1.30066-1.5583.67742.12138,1.63916-.404876,1.63916-.896938c0-.289419.15875-.428103.35277-.308187.63572.392896.37279,1.886257-.43127,2.449442-.79902.559658-2.43601.739292-2.86132.313983ZM85.368346,90.336445c.255732-.677513.508345-.911638.736963-.68302.603208.603207.933549.378971.716382-.486282-.146484-.583635-.03563-.900793.369126-1.056113.460759-.17681.530207-.06989.34127.525396-.141538.445944-.06315.854954.194359,1.014102.797821.493081-.18524,1.552889-1.519618,1.638254-1.218117.07793-1.224591.07058-.838482-.952337Zm32.811294-.864338c0-.291041.13229-.529166.29398-.529166s.29398.238125.29398.529166-.13229.529167-.29398.529167-.29398-.238125-.29398-.529167Zm6.66703-.881944c0-.679097.0726-.95691.16133-.617361s.0887.895174,0,1.234722-.16133.06174-.16133-.617361Zm-1.05834-.705556c0-.679097.0726-.956909.16134-.617361s.0887.895174,0,1.234723-.16134.06174-.16134-.617362Zm-8.1472-1.647188c-.57272-2.851795-.55747-2.902531,1.098-3.653978c1.88707-.856572,2.07749-.855107,3.02029.02324c1.1252,1.048287.99308,1.750148-.32946,1.750148-.93914,0-1.03678-.07801-.66236-.529167.24498-.295183.28318-.529167.0864-.529167-.43807,0-1.34804,1.054071-.92333,1.069553.16927.0062-.01.262513-.39778.569649-.48881.386882-.57009.60921-.26458.723734.64394.241392.54507.663387-.39244,1.674981l-.83342.899268ZM98.585902,85.088873c-2.809113-.392426-2.385469-.843927.567566-.604887c1.532992.124092,3.407672.225622,4.165952.225622.82931,0,1.29183.140578,1.16068.352777-.23686.383256-3.24361.396768-5.894198.02649Zm24.117958-.379265c0-.48507.0801-.683507.17793-.440973s.0979.63941,0,.881945-.17793.0441-.17793-.440972Zm-14.51959-.325958c.48507-.145922,1.67569-.354831,2.64583-.464243l1.76389-.198931-1.41111.467455c-.77611.257099-1.96674.466009-2.64583.464243-1.10027-.0029-1.13869-.0321-.35278-.268524Zm17.02941-1.085154c0-.873125.0688-1.230312.15289-.79375s.0841,1.150938,0,1.5875-.15289.07937-.15289-.79375Zm2.44214.529167c.007-.582083.0862-.7775.1757-.434258.0894.343241.0836.819491-.0131,1.058333s-.1698-.04199-.16261-.624075Zm2.89553-3.374607c.29955-7.971083.63788-11.618448,1.07773-11.618448c1.20815,0,2.91232,6.51102,2.36707,9.043668-.4965,2.306163-1.91992,5.440514-2.8515,6.278947l-.75815.682338ZM92.662047,84.017732c-.485069-.155868-1.572087-.471838-2.415596-.702156-2.143002-.585142-1.55556-.89384.720859-.378809c2.841999.642991,3.105848.73568,3.105848,1.091058c0,.380313-.20061.378878-1.411111-.01009Zm36.436843-2.306736c-.005-1.552222.10382-4.012847.24111-5.468055l.24963-2.645833.0221,2.469444c.0121,1.358194-.0964,3.818819-.24112,5.468056l-.26314,2.998611-.009-2.822223ZM61.970382,83.533682c0-.291042.198437-.609685.440972-.708097.285683-.115919.316741-.281561.08819-.47037-.469469-.387843-.616892-2.841417-.186702-3.107289.368347-.227651-.634834-2.652207-1.097373-2.652207-.293133,0-.536583,1.13091-.932878,4.333547-.13887,1.12227-.411241,1.995395-.605269,1.940278s-.304867-.338339-.246309-.629381.134661-1.243542.169118-2.116667.218358-1.696871.40867-1.830546c.206961-.14537.06999-.548058-.340823-1.002001-.680874-.752358-.680753-.763518.01403-1.283873.722217-.540902,3.535287-.422221,4.131827.17432.156454.156453.04943,1.464617-.237821,2.90703s-.567598,3.086578-.622985,3.653698c-.102466,1.049178-.982647,1.758195-.982647.791558Zm-7.272604-1.446699c-1.197394-.521172-1.373103-.958182-1.747318-4.345826l-.243681-2.205951l1.269082.530257c.697995.29164,1.578136.530256,1.955869.530256.596769,0,.718929.342996.932007,2.616852.329568,3.516991.07785,3.85104-2.165959,2.874412Zm47.754132-.0699c-.0995-.168345-.10141-.828469-.004-1.466941.14169-.931787.46407-1.305112,1.63369-1.891894.80144-.402071,1.8026-1.047254,2.2248-1.433741s.91979-.608668,1.10575-.493734c.34131.210938,1.32317,4.724928,1.07996,4.964999-.30742.303472-5.8754.599678-6.03988.321311Zm-5.909307-.364692c-2.480014-.390625-2.56268-.445346-2.341729-1.550118.115027-.575125.551413-1.84132.969748-2.813766l.76061-1.768084l1.194936,1.396016c.657217.767808,1.548839,1.446313,1.981379,1.507788.668786.09505.802531.36247.893963,1.787468l.10753,1.675694-1.342248-.04804c-.738233-.02642-1.73912-.110553-2.224189-.186956Zm14.251057-1.079253c-.10854-.344314-.36143-1.022901-.56197-1.507971s-.42142-1.437569-.49085-2.116667-.17025-1.631597-.22404-2.116666c-.11205-1.01036-.21393-1.004414,3.73558-.218046c3.30997.659032,3.67258.909671,3.4957,2.416211-.29683,2.528186-.38688,2.664206-2.12519,3.210088-3.09718.97261-3.61347,1.017514-3.82923.333051Zm-60.901398-.230936c-.757332-.757333-1.46298-6.009045-.938967-6.988172l.422322-.789116.3127.845308c.171984.464919.473972,2.046537.671083,3.514707s.44029,2.947213.5404,3.286762c.217681.738325-.32892.809129-1.007538.130511Zm71.708848-.747872c-.0564-1.348317-.0768-1.371864-.45726-.529167-.21903.48507-.44146.943136-.49428,1.017926s-.49789-.127308-.98901-.449105c-.8896-.582884-1.20107-2.031473-.62297-2.897259.4121-.61718,1.8261-1.253696,2.23022-1.003938.20293.125416.59787-.06568.87766-.424659.45516-.584.48503-.457778.28385,1.199396-.14787,1.218082-.0959,1.852084.15177,1.852084.20714,0,.4782-.754063.60236-1.675695.32817-2.435884.46634-2.615519.47486-.617361.008,1.853453-.54475,5.225019-.61681,3.762963-.0515-1.044602-.8211-.828892-1.1422.320136-.19514.698299-.25001.596103-.29819-.555321Zm6.44803-1.058334c.002-1.164166.0678-1.597886.14635-.963821s.0769,1.586566-.004,2.116667c-.0805.530102-.14473.01132-.14275-1.152846ZM89.28989,79.605549c-.653669-.494409-.655016-.518457-.02967-.529167.434879-.0074.586934-.18887.452314-.539684-.124044-.323248.135286-.749983.667812-1.098906c1.05489-.691201,1.100846-1.052348.165033-1.297068-1.094723-.286276-.831325-.956116.375969-.956116.59484,0,1.410088-.175842,1.811665-.39076.677979-.362842.712544-.318737.483828.617361-.135474.554467-.624441,1.841558-1.086594,2.860204-.895735,1.974316-1.573234,2.292541-2.840359,1.334136Zm34.82508-.187608c0-.48507.0801-.683507.17794-.440972s.0979.639409,0,.881944-.17794.0441-.17794-.440972Zm1.38326-.205787c.0169-.410966.10052-.494559.21314-.213137.1019.254662.0894.558933-.0278.676158s-.2006-.09113-.18528-.463021Zm1.48316-2.792824c-.004-1.358195.10465-3.66007.24195-5.115278l.24962-2.645833.0158,2.822222c.009,1.552222-.10018,3.854097-.24195,5.115278l-.25775,2.293055-.008-2.469444Zm-2.33202-2.458607c.10748-2.516401.32348-4.897651.47998-5.291667.3189-.802822.0537,4.489125-.38846,7.750274-.19121,1.410497-.22175.590248-.0915-2.458607Zm.84886,3.487542c.0169-.410966.10052-.494559.21314-.213137.1019.254662.0894.558933-.0278.676158s-.2006-.09114-.18528-.463021Zm-77.570185-.676157c.0072-.582084.08625-.7775.175698-.434259s.08356.819492-.01307,1.058334-.169818-.04199-.162628-.624075Zm-7.103398-1.608067c-2.201733-2.268735-2.63661-3.850822-2.379131-8.655304.175325-3.271514.369961-4.332959,1.000128-5.454191c1.334078-2.373671,1.21467-2.753923,2.595838,8.266417.483395,3.857009.8789,7.071696.8789,7.14375c0,.485308-.911489-.08039-2.095735-1.300672Zm58.228625.468842c-2.981575-2.981575-.7845-7.525406,3.410148-7.052609c2.17786.245477,3.29788,1.424005,3.5166,3.700321.14934,1.554226.0541,1.872011-.87145,2.907887-.88784.993668-1.32798,1.186926-3.02337,1.327521-1.83411.152099-2.06353.08527-3.031928-.88312Zm4.985858-1.207956c.9725-1.149297.82-3.32461-.28376-4.047827-1.68466-1.103825-4.197107-.495768-4.601013,1.113524-.75136,2.993659,2.952093,5.218338,4.884773,2.934303Zm-2.85046-1.769722c.15044-1.062088,1.52754-1.167052,1.52754-.116431c0,.47037-.27399.744366-.82198.821987-.68397.09688-.80244-.02159-.70556-.705556Zm24.7438,1.647458c.002-1.164167.0678-1.597886.14636-.963821s.0769,1.586565-.004,2.116667c-.0805.530101-.14474.01132-.14276-1.152846Zm2.47304-.881944c0-1.261181.064-1.777118.14229-1.146528s.0782,1.662465,0,2.293055-.14229.114653-.14229-1.146527Zm-73.691882.01245c-2.637407-1.067438-2.577186-6.015582.08981-7.379498c4.197391-2.146565,7.910178,3.166586,4.556386,6.520378-1.248604,1.248604-2.92018,1.557693-4.646198.859121Zm3.9214-1.583919c1.25124-1.25124,1.182423-3.105184-.165287-4.452895-1.304332-1.304332-2.277719-1.304332-3.582051,0-1.261162,1.261162-1.381048,3.015-.300037,4.389284.98202,1.248435,2.833453,1.277533,4.047375.06361ZM55.97316,69.754295c0-.598148.95406-1.02103,1.244244-.551502.114679.185553.110394.49612-.0095.690148-.325984.527453-1.234722.425412-1.234722-.138646Zm7.41241,3.681369c-.436401-.280037-.320438-.548095.686564-1.587058c1.574615-1.624591,1.82846-1.576331,1.300487.247243-.442658,1.5289-1.052054,1.9398-1.987051,1.339815ZM117.47,73.305686c-1.621-.598739-1.60995-.531986-.68701-4.15186.46525-1.824806.94571-3.873455,1.06768-4.552552.35688-1.987063.55413-2.133734,2.2803-1.695584l1.51993.385798-.22899,4.623643c-.2011,4.060215-.31705,4.698874-.95157,5.241004-.82527.705108-1.41646.734575-3.00034.149551ZM92.930744,72.112879c.438824-.08438,1.073824-.08118,1.411111.0071s-.02177.157338-.797863.153422-1.052072-.07616-.613248-.160541Zm30.682146-1.86716c.1058-1.261181.24951-2.359202.31936-2.440047.24602-.284711.0531,2.98023-.22751,3.851158-.17053.529207-.20727-.03518-.0919-1.411111Zm-14.01751,1.297l-1.5875-.391329l1.22537-.12829c1.67232-.175082,4.30284.250995,4.05231.656369-.25801.41746-1.6514.365824-3.69018-.13675Zm16.69347-1.649778c0-1.261181.064-1.777118.14228-1.146528s.0783,1.662465,0,2.293056c-.0782.63059-.14228.114652-.14228-1.146528ZM43.301011,71.098265c.01693-.410966.100521-.494559.213137-.213137.101907.254662.08937.558933-.02785.676158s-.200604-.09113-.185286-.463021Zm79.090449-.852546c0-.873125.0688-1.230313.15289-.79375s.0841,1.150937,0,1.5875-.15289.07937-.15289-.79375ZM46.869712,70.06933c.0072-.582084.08625-.7775.175698-.434258s.08356.819491-.01307,1.058333-.169817-.04199-.162628-.624075Zm1.264746.670803c-.432256-.741914-.645434-3.616978-.284719-3.839912.333765-.206278,1.420643,1.753183,1.420643,2.561185c0,.537748-.946715,1.603481-1.135924,1.278727Zm80.592762-1.19997c0-.679097.0726-.95691.16134-.617361s.0887.895174,0,1.234722-.16134.06174-.16134-.617361Zm-33.066562-.352778c.351187-.388055.717896-.705555.81491-.705555s-.110945.3175-.462132.705555-.717896.705556-.81491.705556.110945-.3175.462132-.705556Zm14.993052.332309c-2.38471-.352998-2.95557-.579559-4.8373-1.919809-1.62082-1.154412-1.7669-1.751053-1.28665-5.254876l.22605-1.649185l2.43026.08351c2.03184.06982,2.39502.173072,2.2153.629809-.2578.655198-.8594,4.174476-.86228,5.044214-.003.967395.92999.722717,1.34548-.352778.20613-.533577.56978-1.890198.8081-3.014713s.53075-2.1048.64985-2.178408c.47161-.291469,3.60464.617751,3.7896,1.099758.22254.579942-.84455,6.320691-1.35105,7.268363-.18148.339548-.52281.598003-.75852.574342s-1.30168-.172263-2.36884-.330228Zm-64.149848-1.74342c0-.485069.08007-.683507.177936-.440972s.09786.63941,0,.881944-.177936.0441-.177936-.440972Zm16.211433-.440972c-.349889-1.048938-.337813-1.08824.141878-.46174.288376.376633.52432.89257.52432,1.146528c0,.786677-.266872.512358-.666198-.684788Zm1.933363-1.47607c-.28902-.691725-.954921-1.820691-1.479778-2.508814-.686923-.900603-.846883-1.358537-.570938-1.634481.622092-.622093,1.486825-.0394,1.516957,1.022182.01532.539666.110727.774359.21202.52154.138455-.345572.312955-.301789.703016.176389.477731.585655.504697.550875.340283-.438888-.25887-1.558375.196559-2.116824,1.001213-1.227691.51354.567455.748156.626983,1.151569.29218.429917-.3568.395099-.461725-.229938-.692942-.481253-.178027-.736569-.582123-.736569-1.165787c0-.740647.165795-.892389.970138-.88791c2.331436.01298,2.378585,1.484071.169348,5.283763-1.585572,2.727044-2.30944,3.026456-3.047321,1.260459Zm33.981214-.07369c-.04152-1.423353-.167164-2.301525-.455595-3.184291-.276256-.845511.09491-1.051695,2.236653-1.242474l1.22249-.108895-.10606,1.731902c-.13234,2.160884-.58147,3.383376-1.24301,3.383376-.27997,0-.760151.09636-1.067061.214132-.425305.163205-.565012-.02558-.587417-.79375Zm24.073988-.831493c0-.485069.0801-.683507.17793-.440972s.0979.63941,0,.881944-.17793.0441-.17793-.440972Zm-71.316811.03774c0-.173269.260579-.415028.579065-.537242.484177-.185796.506003-.134174.133193.315034-.508045.612156-.712258.675866-.712258.222208ZM47.3289,63.807524c-.198135-.562059-.88074-6.159901-.88074-7.222689c0-1.591571,1.00553-.877831,1.229461.872689.117897.921632.365749,2.641198.550782,3.821258s.336424,2.330998.336424,2.557639c0,.552775-1.039446.528472-1.235927-.0289Zm47.97898-1.322916c-.119916-.194028-.04991-.352778.155568-.352778s.373599.15875.373599.352778-.07.352777-.155568.352777-.253682-.15875-.373599-.352777Zm-49.537425-.558565c.01693-.410966.100521-.494559.213137-.213137.101907.254662.08937.558933-.02785.676158s-.200604-.09113-.185286-.463021Zm5.118953-.09598c-.102576-.165973-.294127-1.832848-.425668-3.704167l-.239165-3.402399h1.081551c1.961006,0,2.197589.254479,2.197589,2.363825c0,1.656617.104557,1.962904.725508,2.125286.410378.107317.648834.389535.548985.649737-.09709.253006.013.53711.244631.631342s.143342.183863-.196207.199181-.617361-.130899-.617361-.324927-.3175-.352778-.705556-.352778c-.75138,0-1.011038.700122-.264583.7134.550592.0098-1.166804,1.384663-1.743069,1.395422-.231084.0043-.504078-.127951-.606655-.293923Zm2.614307-2.520454c0-.194028-.149381-.352778-.331958-.352778s-.43007.15875-.549986.352778.02946.352777.331958.352777.549986-.15875.549986-.352777Zm6.702778,1.234722c0-.291042.06239-.529167.138645-.529167s.230023.238125.341706.529167.04929.529167-.138645.529167-.341706-.238125-.341706-.529167Zm-2.998611-.881945c-.119916-.194027-.04991-.352777.155569-.352777s.373598.15875.373598.352777-.07001.352778-.155569.352778-.253682-.15875-.373598-.352778Zm5.27716-.376249c-.127895-.206938.06117-.598764.420152-.870725.596556-.45195.536387-.49544-.699627-.505695-.925686-.0077-1.303543-.150337-1.197719-.452192.175701-.501171,1.79293-.411395,2.858085.158658.647454.346507.655734.408326.108304.808616-.326009.238384-.592744.614362-.592744.835506c0,.507421-.588335.524374-.896451.02583Zm-4.786689-.417501c-.02722-.14552-.08919-.423333-.137693-.617361s-.108039-.496665-.132292-.672528-.361597-.236723-.749653-.135244c-.490685.128317-.705555.01082-.705555-.385805c0-.313671-.15875-.570312-.352778-.570312s-.352778-.238125-.352778-.529166c0-.607023.955468-.684939,2.27009-.185121.673701.256141.90353.594153.899508,1.322917-.005.897854-.624447,2.384119-.738849,1.77262Z" fill="var(--svg-fill, #fff)" stroke-width="0.352778"/></g><g id="bootprints-light_down-u-bootprints-light-down__left" transform="translate(45.5382-116.315491)" opacity="0"><path id="bootprints-light_down-u-path224" d="M64.3587,164.11407c-.119916-.19403-.04991-.35278.155569-.35278s.373597.15875.373597.35278-.07001.35277-.155569.35277-.253681-.15875-.373597-.35277Zm-2.645834-.88195c0-.29104.06239-.52917.138646-.52917s.230023.23813.341706.52917.04929.52917-.138646.52917-.341706-.23813-.341706-.52917Zm-1.38326-4.26273c.01693-.41097.100521-.49456.213137-.21314.101907.25466.08937.55894-.02785.67616s-.200604-.0911-.185286-.46302Zm2.469444-.35278c.01693-.41096.100521-.49456.213137-.21313.101907.25466.08937.55893-.02785.67615s-.200604-.0911-.185286-.46302Zm79.02222,0c.0169-.41096.10052-.49456.21313-.21313.10191.25466.0894.55893-.0278.67615s-.2006-.0911-.18529-.46302Zm.6777-.14699c0-.19403.16812-.35278.3736-.35278s.27549.15875.15557.35278-.28804.35278-.3736.35278-.15557-.15875-.15557-.35278Zm-1.38325-.91134c.0169-.41097.10052-.49456.21313-.21314.10191.25466.0894.55893-.0278.67616s-.20061-.0911-.18529-.46302Zm-76.172152-1.5581c0-.48507.08007-.68351.177936-.44098s.09786.63941,0,.88195-.177936.0441-.177936-.44097Zm82.744852,0c.10148-.38806.24537-.70556.31975-.70556s.13525.3175.13525.70556-.14389.70555-.31975.70555-.23673-.3175-.13525-.70555Zm-83.831036-.91135c.01693-.41096.100521-.49456.213136-.21313.101908.25466.08938.55893-.02785.67615s-.200604-.0911-.185286-.46302Zm78.999766-.88194c.003-.66293.15084-1.4352.32858-1.71616.20908-.33047.25231.0432.12245,1.05834-.24919,1.94802-.45817,2.25282-.45103.65782Zm-74.766433-.17639c.01693-.41097.100521-.49456.213137-.21314.101907.25467.08937.55894-.02785.67616s-.200604-.0911-.185287-.46302Zm77.258333-2.82222c.0169-.41097.10052-.49456.21313-.21314.10191.25466.0894.55893-.0278.67616s-.20061-.0911-.18529-.46302Zm-1.1884-.49977c-.10148-.38806-.0406-.70556.13524-.70556s.31975.3175.31975.70556-.0609.70556-.13524.70556-.21827-.3175-.31975-.70556Zm-6.31393-1.29932c.25466-.10191.55893-.0894.67616.0279s-.0911.2006-.46302.18529c-.41097-.0169-.49456-.10052-.21314-.21314Zm-75.04767-.67036c.01693-.41096.100521-.49456.213137-.21313.101907.25466.08937.55893-.02785.67615s-.200604-.0911-.185286-.46302Zm86.43055,0c.0169-.41096.10052-.49456.21314-.21313.1019.25466.0894.55893-.0278.67615s-.2006-.0911-.18528-.46302Zm-84.341734-.87336c0-.20548.15875-.27549.352778-.15557s.352778.28803.352778.3736-.15875.15557-.352778.15557-.352778-.16812-.352778-.3736Zm80.279624-.22855c-.19145-.50278-.15093-.5433.19748-.19748.2411.2393.34949.52396.24087.63257s-.30587-.0872-.43835-.43509Zm-2.44854-.64621c-.34043-.88713-.24-1.11604.17587-.40088.20591.3541.30007.71814.20924.80897s-.26413-.0928-.38511-.40809Zm10.41906-.16276c0-.48507.0801-.6835.17793-.44097s.0979.63941,0,.88195-.17793.0441-.17793-.44098Zm-9.38163-.80896c.13248-.34792.32973-.54371.43835-.43509s.00023.39327-.24087.63257c-.34841.34582-.38893.3053-.19748-.19748Zm2.50275-.6728c.29712-1.55973.47318-1.69432.47318-.36174c0,.60297-.15636,1.19294-.34747,1.31105-.2171.13418-.26427-.22198-.12571-.94931Zm-9.02397.21764c.0169-.41096.10052-.49456.21313-.21313.10191.25466.0894.55893-.0278.67615s-.2006-.0911-.18529-.46302Zm9.87778-1.76388c.0169-.41097.10052-.49456.21313-.21314.10191.25466.0894.55893-.0278.67616s-.20061-.0911-.18529-.46302Zm-4.79035-.85255c.11991-.19403.28803-.35278.37359-.35278s.15557.15875.15557.35278-.16812.35278-.3736.35278-.27548-.15875-.15556-.35278Zm-66.470762-1.26412c.01693-.41097.100521-.49456.213136-.21314.101908.25466.08937.55893-.02785.67616s-.200604-.0911-.185286-.46302Zm68.466732-2.26366c0-.48507.0801-.68351.17794-.44097s.0979.63941,0,.88194-.17794.0441-.17794-.44097Zm-.69248-.52917c.007-.58208.0863-.7775.1757-.43425s.0836.81949-.0131,1.05833c-.0966.23884-.1698-.042-.16261-.62408Zm-6.12691-1.26624c-.46308-.48615-.48954-.65806-.12296-.79874.2716-.10422.54966.13633.66429.57468.25025.95697.18322.98471-.54133.22406Zm1.31832.13493c-.19145-.50278-.15093-.5433.19748-.19748.2411.2393.34949.52396.24087.63257s-.30587-.0872-.43835-.43509Zm-34.41851-5.74785c-.31796-.20548-.36147-.34413-.10902-.34738.23108-.003.51827.15335.63818.34738.27069.43798.14856.43798-.52916,0Z" fill="var(--svg-fill, #fff)" stroke-width="0.352778"/><path id="bootprints-light_down-u-path222" d="M80.430372,163.91324c.226841-.27333.563762-.40344.748714-.28913.410667.25381.105731.60014-.622508.70703-.424976.0624-.451609-.0258-.126206-.4179Zm-23.275766-3.88552c.01693-.41096.100521-.49456.213137-.21313.101907.25466.08937.55893-.02785.67615s-.200603-.0911-.185286-.46302Zm4.938889-.35277c.01693-.41097.100521-.49456.213137-.21314.101907.25466.08937.55893-.02785.67616s-.200604-.0911-.185286-.46302Zm18.140204-1.20533c.351185-.38805.717894-.70555.814908-.70555s-.110945.3175-.46213.70555-.717894.70556-.814908.70556.110945-.3175.46213-.70556Zm62.265271-.68473c0-.18258.15875-.43008.35278-.54999s.35278.0295.35278.33196-.15875.54998-.35278.54998-.35278-.14938-.35278-.33195Zm-78.507554-1.45541c-.127894-.20693-.156874-.4519-.0644-.54438s.262137.0768.377031.37625c.238543.62163.03522.73098-.312631.16813Zm78.916034-.3293c0-.48507.0801-.68351.17794-.44098s.0979.63941,0,.88195-.17794.0441-.17794-.44097Zm2.41375-2.29306c0-1.13183.11099-1.94687.24666-1.81121.25097.25097.16368,3.45372-.10145,3.72209-.0799.0808-.14521-.77905-.14521-1.91088Zm-24.76059,1.34651c.25466-.1019.55893-.0894.67616.0279s-.0911.2006-.46303.18528c-.41096-.0169-.49455-.10052-.21313-.21314ZM64.562939,154.0305c.01693-.41097.100521-.49456.213137-.21314.101907.25467.08937.55894-.02785.67616s-.200604-.0911-.185287-.46302Zm75.522291-.49977c0-.48507.0801-.6835.17794-.44097s.0979.63941,0,.88194-.17794.0441-.17794-.44097Zm6.47069-2.46944c.11991-.19403.28803-.35278.3736-.35278s.15557.15875.15557.35278-.16812.35278-.3736.35278-.27549-.15875-.15557-.35278Zm-74.612498-.1332c0-.0733.277812-.35106.617361-.61736.559525-.43881.572003-.42633.133193.1332-.460858.58764-.750554.77451-.750554.48416Zm70.560958-3.0712c.003-.4689.1615-1.09067.35228-1.38171.24405-.3723.27972-.16314.12031.70555-.27918,1.52146-.47977,1.80844-.47259.67616Zm1.43356-2.99861c.0169-.41097.10052-.49456.21313-.21314.10191.25466.0894.55893-.0278.67616s-.20061-.0911-.18529-.46302Zm3.175,0c.0169-.41097.10052-.49456.21313-.21314.10191.25466.0894.55893-.0278.67616s-.20061-.0911-.18529-.46302Zm-.70556-1.41111c.0169-.41097.10052-.49456.21314-.21314.1019.25466.0894.55893-.0278.67616s-.2006-.0911-.18528-.46302Zm-6.55424-.14699c.11992-.19403.28804-.35278.3736-.35278s.15557.15875.15557.35278-.16812.35277-.3736.35277-.27549-.15875-.15557-.35277Zm-59.306351-2.174c.10958-.55943.921632-.82731.921632-.30403c0,.22165-.145191.31327-.322647.20359s-.403674-.0357-.502708.16439-.142358.17131-.09628-.064Zm63.743921-.50123c.0169-.41097.10053-.49456.21314-.21314.10191.25466.0894.55893-.0278.67616s-.2006-.0911-.18528-.46302Zm-6.44399-1.79909c.25466-.10191.55893-.0894.67616.0279s-.0911.2006-.46302.18528c-.41097-.0169-.49456-.10052-.21314-.21313Zm3.24114-.44375c0-.37661.13582-.76868.30182-.87127s.22687.20554.13526.68473c-.19897,1.04086-.43708,1.14248-.43708.18654Zm-19.8217-.61459c.25466-.1019.55893-.0894.67616.0279s-.0911.20061-.46302.18529c-.41097-.0169-.49456-.10052-.21314-.21314Zm19.98359-1.19359c-.1279-.20694-.15688-.45191-.0644-.54438s.26213.0768.37703.37625c.23854.62163.0352.73097-.31263.16813Zm-34.92769-.70991c-.0894-.14466.0717-.22863.35808-.1866.73716.10819,1.00229.44961.34915.44961-.29957,0-.61783-.11836-.70723-.26301Zm12.03432-2.54503c.13248-.34792.32974-.54371.43835-.43509s.00023.39327-.24087.63257c-.34841.34582-.38893.3053-.19748-.19748Zm20.67052-.24937c0-.48507.0801-.68351.17793-.44097s.0979.63941,0,.88194-.17793.0441-.17793-.44097Zm-15.90285-1.96967c.0169-.41097.10052-.49456.21313-.21314.10191.25466.0894.55893-.0278.67616s-.2006-.0911-.18529-.46302Z" fill="var(--svg-fill, #fff)" stroke-width="0.352778"/><path id="bootprints-light_down-u-path220" d="M61.018039,159.33393c.0094-.91233.05743-.96035.389334-.38934.271339.46682.2683.76167-.01073,1.0407-.283927.28392-.38643.10758-.378606-.65136Zm17.275382.74802c0-.097.3175-.34631.705556-.554s.705555-.29822.705555-.20121-.3175.34631-.705555.55399-.705556.29823-.705556.20122Zm62.116739-2.52367c.0169-.41097.10052-.49456.21313-.21314.10191.25466.0894.55893-.0278.67616s-.2006-.0911-.18529-.46302Zm-83.608331-.35278c.01693-.41097.10052-.49456.213136-.21314.101907.25467.08937.55894-.02785.67616s-.200603-.0911-.185286-.46302Zm88.417151-.85255c.10148-.38805.24537-.70555.31975-.70555s.13524.3175.13524.70555-.14388.70556-.31975.70556-.23672-.3175-.13524-.70556Zm-62.718926-4.85069l-.855244-.97014.970139.85525c.533576.47038.970139.90694.970139.97013c0,.27668-.285679.0515-1.085034-.85524Zm29.402166.0201c.34324-.0894.81949-.0836,1.05833.0131.23884.0966-.042.16982-.62407.16263-.58209-.007-.77751-.0863-.43426-.1757Zm-.53588-.69472c.24253-.0979.63941-.0979.88194,0s.0441.17794-.44097.17794-.68351-.0801-.44097-.17794Zm37.19863-3.11775c.007-.58208.0863-.7775.1757-.43426s.0836.81949-.0131,1.05833c-.0966.23885-.1698-.042-.16261-.62407Zm-7.06863-.88195c0-.48507.0801-.6835.17794-.44097s.0979.63941,0,.88195-.17794.0441-.17794-.44098Zm1.08448-5.99722c0-.6791.0726-.95691.16133-.61736s.0887.89517,0,1.23472-.16133.0617-.16133-.61736Zm4.91274-1.41111c0-.48507.0801-.68351.17794-.44097s.0979.63941,0,.88194-.17794.0441-.17794-.44097Zm-9.05153-.70555c-.11992-.19403-.0499-.35278.15557-.35278s.3736.15875.3736.35278-.07.35277-.15557.35277-.25368-.15875-.3736-.35277Zm-2.00642-.94655c.25466-.1019.55893-.0894.67616.0279s-.0911.20061-.46303.18529c-.41096-.0169-.49455-.10052-.21313-.21314Zm-29.80238-2.42036c0-.28251.1323-.51365.29399-.51365s.29398.14938.29398.33196-.13229.41372-.29398.51365-.29399-.0495-.29399-.33196Zm34.63102.19191c.11992-.19403.28804-.35278.3736-.35278s.15557.15875.15557.35278-.16812.35277-.3736.35277-.27548-.15875-.15557-.35277Zm-40.04027-.72638c0-.20548.15875-.27548.35277-.15557s.35278.28804.35278.3736-.15875.15557-.35278.15557-.35277-.16812-.35277-.3736Zm40.92222-1.2139c0-.29104.15377-.52917.3417-.52917s.25033.23813.13865.52917-.26545.52916-.34171.52916-.13864-.23812-.13864-.52916Zm-18.9943-1.23472c0-.48507.0801-.68351.17793-.44098s.0979.63941,0,.88195-.17793.0441-.17793-.44097Z" fill="var(--svg-fill, #fff)" stroke-width="0.352778"/><path id="bootprints-light_down-u-path218" d="M72.254276,167.56473c.162406-.97963.212092-1.02932.323174-.32317.0722.45894-.01416.97987-.191911,1.15761-.195713.19571-.247484-.13339-.131263-.83444Zm-7.338559-.83423c.01693-.41097.100521-.49456.213137-.21314.101907.25466.08937.55893-.02785.67616s-.200604-.0911-.185287-.46302Zm8.909186.0449c0-.28251.134881-.43029.299736-.3284s.208403.33302.09677.51364c-.285265.46157-.396509.4096-.396509-.18524Zm1.58015-1.84401c.254662-.1019.558933-.0894.676158.0278s-.09113.2006-.463021.18528c-.410966-.0169-.494559-.10052-.213137-.21313Zm65.954957-8.14312c-.0896-.34264-.0399-.93796.11045-1.32291.20823-.53314.27928-.38469.29816.62299.0266,1.41753-.14437,1.71035-.40861.69992Zm4.9247-.40706c-.15345-.58679-.10754-.72452.15425-.46274.20499.205.30331.58096.21847.83547-.0881.26421-.24798.1043-.37272-.37273Zm-83.508108-1.70397c-.003-.43656.153348-.79375.347376-.79375.442003,0,.442003.37438,0,1.05833-.276534.42791-.343008.37728-.347376-.26458Zm49.901698-.81147c-.33521-.54239.12395-.89234.57674-.43955.25336.25336.25944.45068.0185.5996-.19752.12207-.46538.0501-.59523-.16005Zm-50.766364-.58443c-.191447-.50277-.150925-.5433.197484-.19748.241094.2393.349486.52396.240871.63258s-.305876-.0872-.438355-.4351Zm78.173294-1.51452c0-.48507.0801-.6835.17794-.44097s.0979.63941,0,.88195-.17794.0441-.17794-.44098Zm-77.843197-.70555c-.119916-.19403-.04991-.35278.155569-.35278s.373598.15875.373598.35278-.07001.35278-.155569.35278-.253682-.15875-.373598-.35278Zm86.322937-1.5875c.007-.58209.0863-.7775.1757-.43426s.0836.81949-.0131,1.05833c-.0966.23884-.1698-.042-.16261-.62407Zm-38.94047-1.12293c.25466-.10191.55893-.0894.67616.0279s-.0911.2006-.46303.18528c-.41096-.0169-.49455-.10052-.21313-.21313Zm31.81614-.48539c0-.20548.15875-.27549.35278-.15557s.35278.28803.35278.3736-.15875.15557-.35278.15557-.35278-.16812-.35278-.3736Zm-77.412037-.78815c.132479-.34791.329739-.54371.438354-.43509s.000224.39328-.240871.63258c-.348409.34581-.38893.30529-.197483-.19749Zm1.411111-1.05833c.132479-.34792.329739-.54371.438354-.43509s.000224.39327-.240871.63257c-.348409.34582-.38893.3053-.197483-.19748Zm79.886886-2.63062c-.003-.43656.15335-.79375.34737-.79375.44201,0,.44201.37438,0,1.05833-.27653.42791-.343.37728-.34737-.26458Zm-2.77193-4.32153c0-.48507.0801-.6835.17794-.44097s.0979.63941,0,.88195-.17794.0441-.17794-.44098Zm6.2943.0208c0-.18257.15694-.42894.34874-.54749.19998-.12359.25912.018.13865.33196-.23453.61116-.48739.72298-.48739.21553Zm-28.4868-.264c.33955-.0887.89517-.0887,1.23472,0s.0617.16134-.61736.16134-.95691-.0726-.61736-.16134Zm27.07569-.44155c0-.18258.15694-.42895.34874-.54749.19998-.12359.25912.018.13865.33196-.23453.61115-.48739.72297-.48739.21553Zm-1.41111-1.07916c0-.19402.15875-.35277.35278-.35277s.35278.15875.35278.35277-.15875.35278-.35278.35278-.35278-.15875-.35278-.35278Zm-25.46614-.94654c.25466-.10191.55893-.0894.67616.0279s-.0911.20061-.46303.18529c-.41096-.0169-.49455-.10052-.21313-.21314Zm23.40518-.81734c0-.48507.0801-.68351.17793-.44098s.0979.63941,0,.88195-.17793.0441-.17793-.44097Zm-20.84174-1.96968c.0169-.41097.10052-.49456.21313-.21314.10191.25466.0894.55894-.0278.67616s-.2006-.0911-.18529-.46302Zm-4.96674-4.00673c0-.18257.15693-.42894.34874-.54749.19997-.12359.25911.018.13864.33196-.23452.61116-.48738.72298-.48738.21553Zm2.38125-.60723c.24253-.0979.63941-.0979.88194,0s.0441.17793-.44097.17793-.68351-.0801-.44097-.17793Z" fill="var(--svg-fill, #fff)" stroke-width="0.352778"/><path id="bootprints-light_down-u-path216" d="M72.351901,165.87795c0-.48507.08007-.6835.177936-.44097s.09786.63941,0,.88195-.177936.0441-.177936-.44098Zm1.567536-1.70606c-.08979-.14528.143255-.28723.517869-.31545.810177-.061.881452.10526.163247.38086-.284828.1093-.59133.0799-.681116-.0654Zm6.043799-.45438c.239301-.24109.52396-.34948.632576-.24087s-.08718.30588-.435093.43836c-.502778.19144-.543299.15092-.197483-.19749Zm3.527196-2.51627c-.106064-.2764-.07087-.6999.0782-.94111.208985-.33814.3152-.32349.463888.064.106065.27639.07087.69989-.0782.9411-.208984.33814-.315199.32349-.463888-.064Zm-20.990165-1.67329c0-.67909.0726-.95691.161334-.61736s.08873.89518,0,1.23473-.161334.0617-.161334-.61737Zm81.437673-2.32245c.0169-.41097.10052-.49456.21313-.21314.10191.25467.0894.55894-.0278.67616s-.20061-.0911-.18529-.46302Zm-19.43063-1.33852c0-.0733.27781-.35107.61736-.61736.55953-.43881.572-.42633.13319.1332-.46085.58763-.75055.77451-.75055.48416Zm21.75465-.13139c-.0876-.14552-.0358-.89958.115-1.67569l.27421-1.41111.0406,1.67569c.0387,1.59961-.0806,1.9914-.42978,1.41111Zm-81.997804-1.4993c0-.6791.0726-.95691.161334-.61736s.08873.89517,0,1.23472-.161334.0617-.161334-.61736Zm1.196459.51553c-.340423-.88713-.239999-1.11604.175871-.40088.205913.3541.300073.71814.209243.80897s-.26413-.0928-.385114-.40809Zm13.946841-.86831c0-.48507.08007-.68351.177937-.44097s.09786.63941,0,.88194-.177937.0441-.177937-.44097Zm65.236034-1.26412c.0169-.41097.10052-.49456.21314-.21314.1019.25466.0894.55894-.0278.67616s-.2006-.0911-.18528-.46302Zm3.75049-1.5581c-.10148-.38806-.0406-.70556.13524-.70556s.31975.3175.31975.70556-.0609.70555-.13524.70555-.21827-.3175-.31975-.70555Zm-1.60597-2.46945c0-.48507.0801-.6835.17794-.44097s.0979.63941,0,.88195-.17794.0441-.17794-.44098Zm-5.67229-2.67523c.0169-.41096.10052-.49456.21313-.21313.10191.25466.0894.55893-.0278.67615s-.20061-.0911-.18529-.46302Zm4.21088-.88194c.003-.4689.1615-1.09067.35228-1.38172.24405-.37229.27972-.16313.12032.70556-.27919,1.52145-.47977,1.80844-.4726.67616Zm-78.674845.009c0-.20548.15875-.27549.352778-.15557s.352778.28803.352778.37359-.15875.15557-.352778.15557-.352778-.16812-.352778-.37359Zm52.279885-1.91946c.007-.58209.0862-.7775.1757-.43426s.0836.81949-.0131,1.05833c-.0966.23884-.1698-.042-.16261-.62407Zm24.97845-.54999c0-.20548.15875-.27548.35277-.15557s.35278.28804.35278.3736-.15875.15557-.35278.15557-.35277-.16812-.35277-.3736Zm1.43896-.53774c.0169-.41097.10052-.49456.21313-.21314.10191.25466.0894.55893-.0278.67616s-.20061-.0911-.18529-.46302Zm-2.46945-.35278c.0169-.41097.10052-.49456.21314-.21314.10191.25466.0894.55893-.0278.67616s-.2006-.0911-.18528-.46302Zm3.73512.32338c-.12936-.12935-.23519-.39923-.23519-.59972c0-.22106.16431-.20023.41745.0529.2296.2296.33544.49948.23519.59972s-.2881.0764-.41745-.0529Zm-6.4088-2.93982c-.11992-.19402-.0499-.35277.15557-.35277s.3736.15875.3736.35277-.07.35278-.15557.35278-.25368-.15875-.3736-.35278Zm4.7625,0c0-.19402.15875-.35277.35278-.35277s.35277.15875.35277.35277-.15875.35278-.35277.35278-.35278-.15875-.35278-.35278Zm-22.64392-.24098c.25466-.10191.55893-.0894.67615.0279s-.0911.2006-.46302.18528c-.41096-.0169-.49456-.10052-.21313-.21313Zm20.40966-.34698c-.12935-.12935-.23036-.48654-.22446-.79375.009-.45872.0776-.44348.38512.0853.37986.65323.26973,1.13888-.16066.70849Zm4.82544-.66197c-.1149-.29941-.13008-.62321-.0337-.71955s.25985.14863.36334.54438c.21983.84064-.0244.97045-.3296.17517Zm-3.75164-.5136c-.10143-.38787-.0406-.79411.13524-.90277s.31966.20869.31966.70521c0,1.08092-.20106,1.16824-.4549.19756Zm-38.35065-.35313c0-.19403.16812-.35278.3736-.35278s.27548.15875.15557.35278-.28804.35277-.3736.35277-.15557-.15875-.15557-.35277Zm40.59729-.55857c.0169-.41096.10052-.49456.21314-.21313.1019.25466.0894.55893-.0278.67615s-.2006-.0911-.18528-.46302Zm-8.31813-2.96921c.11992-.19403.28804-.35278.3736-.35278s.15557.15875.15557.35278-.16812.35278-.3736.35278-.27548-.15875-.15557-.35278Zm-8.2215-2.64583c.007-.58209.0863-.7775.1757-.43426s.0836.81949-.0131,1.05833c-.0966.23884-.1698-.042-.16261-.62407Zm-10.38752-1.82114c.24253-.0979.63941-.0979.88194,0s.0441.17793-.44097.17793-.68351-.0801-.44097-.17793Z" fill="var(--svg-fill, #fff)" stroke-width="0.352778"/><path id="bootprints-light_down-u-path214" d="M68.824124,167.64184c0-.48507.08007-.6835.177936-.44097s.09786.63941,0,.88195-.177936.0441-.177936-.44098Zm5.94152-4.17453c0-.16169.231141-.29399.513648-.29399s.431888.1323.331958.29399-.331071.29398-.513648.29398-.331958-.13229-.331958-.29398Zm49.675516-.65257c.25466-.1019.55893-.0894.67616.0279s-.0911.2006-.46302.18528c-.41097-.0169-.49456-.10052-.21314-.21313Zm-45.536257-.50834c.239301-.24109.52396-.34949.632575-.24087s-.08717.30588-.435092.43835c-.502778.19145-.5433.15093-.197483-.19748Zm-16.811408-.51479c.01693-.41096.100521-.49456.213137-.21313.101907.25466.08937.55893-.02785.67615s-.200604-.0911-.185286-.46302Zm2.617982-.85254c-.119915-.19403-.04991-.35278.155569-.35278s.373598.15875.373598.35278-.07001.35277-.155569.35277-.253682-.15875-.373598-.35277Zm51.824813-4.63609c-.66965-.75284-.66922-.75379.12171-.26792.43657.26819.79375.60818.79375.75553c0,.42536-.19647.32071-.91546-.48761Zm-53.73724-.15581c.01693-.41097.100521-.49456.213137-.21314.101907.25466.08937.55893-.02785.67616s-.200604-.0911-.185286-.46302Zm81.16674-.14699c0-.48507.0801-.68351.17793-.44098s.0979.63941,0,.88195-.17793.0441-.17793-.44097Zm-82.15684-1.05834c0-.87312.0688-1.23031.152883-.79375s.08409,1.15094,0,1.5875-.152883.0794-.152883-.79375Zm-4.97927-1.05833c0-.48507.08007-.68351.177936-.44097s.09786.63941,0,.88194-.177936.0441-.177936-.44097Zm14.463888-.35278c0-.48507.08007-.6835.177936-.44097s.09786.63941,0,.88194-.177936.0441-.177936-.44097Zm77.291592-.52916c.004-.77612.0762-1.05208.16054-.61325s.0812,1.07382-.007,1.41111c-.0883.33729-.15734-.0217-.15342-.79786Zm-6.43896-.15557c0-.18258.15693-.42895.34874-.54749.19997-.12359.25911.018.13864.33196-.23452.61115-.48738.72297-.48738.21553Zm4.93889-.17639c0-.30249.15875-.54999.35277-.54999s.35278.14938.35278.33196-.15875.43007-.35278.54999-.35277-.0295-.35277-.33196Zm-19.46893-.0854c.25466-.10191.55893-.0894.67616.0279s-.0911.2006-.46302.18529c-.41097-.0169-.49456-.10052-.21314-.21314Zm17.02968-.81735c.0106-.29104.15582-.84666.32258-1.23472l.30319-.70555.0194.70555c.0106.38806-.13449.94368-.32258,1.23472-.30398.47037-.33982.47037-.32258,0Zm-19.7579-1.26412c.0169-.41096.10052-.49456.21313-.21313.10191.25466.0894.55893-.0278.67615s-.20061-.0911-.18529-.46302Zm-6.73063-.98574c0-.0733.27781-.35107.61736-.61736.55953-.43881.572-.42633.13319.1332-.46085.58763-.75055.77451-.75055.48416Zm2.4033-1.5189c.25466-.10191.55893-.0894.67616.0279s-.0911.2006-.46303.18529c-.41096-.0169-.49455-.10053-.21313-.21314Zm26.1717-.64096c0-.29104.0624-.52917.13864-.52917s.23002.23813.34171.52917.0493.52917-.13864.52917-.34171-.23813-.34171-.52917Zm-2.46945-.54999c0-.20547.15875-.27548.35278-.15556s.35278.28803.35278.37359-.15875.15557-.35278.15557-.35278-.16812-.35278-.3736Zm-68.722887-1.56668c.0072-.58208.08625-.7775.175698-.43425s.08356.81949-.01307,1.05833-.169818-.042-.162628-.62408Zm-8.479738-.88194c0-.48507.08007-.68351.177936-.44097s.09786.63941,0,.88194-.177936.0441-.177936-.44097Zm74.380405-1.74307c0-.8518.19618-.93774.47602-.20851.1093.28483.0469.6117-.13865.72638s-.33737-.11836-.33737-.51787Zm1.43896.12617c.0169-.41096.10052-.49456.21314-.21313.10191.25466.0894.55893-.0278.67615s-.2006-.0911-.18528-.46302Zm6.35-1.05833c.0169-.41097.10052-.49456.21314-.21314.1019.25466.0894.55893-.0278.67616s-.2006-.0911-.18528-.46302Zm-3.82656-1.20533c0-.67909.0726-.95691.16134-.61736s.0887.89518,0,1.23473-.16134.0617-.16134-.61737Zm-2.46232-.52916c.004-.77611.0762-1.05207.16054-.61325s.0812,1.07382-.007,1.41111c-.0883.33729-.15733-.0217-.15341-.79786Zm-17.0223-1.2458c0-.18793.23812-.3417.52917-.3417s.52916.0624.52916.13864-.23812.23003-.52916.34171-.52917.0493-.52917-.13865Zm19.07785-.54749c.0169-.41097.10052-.49456.21313-.21314.10191.25467.0894.55894-.0278.67616s-.2006-.0911-.18529-.46302Zm-21.87222-2.82222c.0169-.41097.10052-.49456.21313-.21314.10191.25466.0894.55893-.0278.67616s-.2006-.0911-.18529-.46302Zm6.70278-2.11667c.0169-.41096.10052-.49456.21313-.21313.10191.25466.0894.55893-.0278.67615s-.20061-.0911-.18529-.46302Zm-4.34938-3.9084c.24253-.0979.63941-.0979.88194,0s.0441.17793-.44097.17793-.68351-.0801-.44097-.17793Z" fill="var(--svg-fill, #fff)" stroke-width="0.352778"/><path id="bootprints-light_down-u-path212" d="M69.121199,167.34081c0-2.71953.465191-5.76147.907006-5.93101.245908-.0944.878483.11108,1.405722.45654s.77819.68825.557667.76176c-.667196.2224-.449396.78041.304605.78041.388056,0,.705556-.15875.705556-.35278s.277812-.34024.617361-.32492.427842.10494.196207.19918-.341719.37833-.244631.63134c.09985.2602-.138607.54242-.548985.64974-.620951.16238-.725508.46866-.725508,2.12528c0,2.09823-.241067,2.36383-2.145519,2.36383-.959344,0-1.029481-.0926-1.029481-1.35937Zm3.175-3.22674c0-.19403-.247494-.35278-.549986-.35278s-.451874.15875-.331958.35278.36741.35277.549986.35277.331958-.15875.331958-.35277Zm1.763889,3.35138c0-.29104.15875-.52916.352778-.52916s.352778-.25664.352778-.57031c0-.39663.21487-.51412.705555-.38581.388056.10148.7254.0406.749653-.13524s.08379-.4785.132292-.67253.110469-.47184.137693-.61736c.114402-.6115.733894.87476.738849,1.77262.004.72876-.225807,1.06677-.899508,1.32291-1.314622.49982-2.27009.42191-2.27009-.18512Zm-8.682533-2.20486c.466246-4.73768.671545-5.79427,1.16246-5.98265.822803-.31574.905098.0982.518521,2.60823-.203661,1.32236-.467605,3.15835-.586542,4.07998-.154753,1.19918-.374434,1.67569-.772516,1.67569-.47471,0-.521909-.34913-.321923-2.38125Zm14.555739,1.08131c-.528785-.52878-.147351-.81741,1.094155-.82794c1.210781-.0103,1.267592-.0531.670229-.5057-.358978-.27196-.548047-.66378-.420152-.87072.308116-.49854.896451-.48159.896451.0258c0,.22114.266735.59712.592744.8355.548569.40113.541996.45955-.08819.78384-1.010109.51981-2.484323.8201-2.745233.55919Zm-3.932928-2.58061c.119916-.19403.288034-.35278.373598-.35278s.155569.15875.155569.35278-.16812.35278-.373598.35278-.275485-.15875-.155569-.35278Zm9.348611-.54054c0-.58366.255316-.98776.736569-1.16578.625037-.23122.659855-.33615.229938-.69295-.403413-.3348-.638029-.27527-1.151569.29218-.804654.88914-1.260083.33069-1.001213-1.22769.164414-.98976.137448-1.02454-.340283-.43889-.390061.47818-.564561.52197-.703016.17639-.101293-.25282-.196702-.0181-.21202.52154-.03013,1.06159-.894865,1.64428-1.516957,1.02219-.275945-.27595-.115985-.73388.570938-1.63448.524857-.68813,1.190758-1.81709,1.479778-2.50882.737881-1.766,1.461749-1.46658,3.047321,1.26046c2.209237,3.79969,2.162088,5.27078-.169348,5.28376-.804343.004-.970138-.14726-.970138-.88791Zm-27.099938-.83221c-.841507-1.49726-1.443029-7.56664-.989504-9.98414.392814-2.09388,3.607874-6.18672,4.309064-5.48553.08101.081-.248892,3.30839-.733119,7.17194-1.381776,11.02491-1.264728,10.6494-2.586441,8.29773Zm20.749938.4908c0-.29104.153768-.52916.341706-.52916s.250329.23812.138645.52916-.265451.52917-.341706.52917-.138645-.23813-.138645-.52917Zm44.323263-1.80068c-.4785-3.49103-.32404-4.09329,1.3656-5.32471c2.39434-1.745,7.28226-2.73497,7.88993-1.59798.50332.94173,1.56837,6.68318,1.34683,7.26049-.18496.482-3.31799,1.39122-3.7896,1.09975-.1191-.0736-.41153-1.05389-.64985-2.1784s-.60196-2.48114-.8081-3.01472c-.41549-1.07549-1.34868-1.32017-1.34548-.35277.003.86973.60449,4.38901.86229,5.04421.17971.45674-.18347.55999-2.21531.62981l-2.43026.0835Zm-4.1066,1.01446c-2.27339-.30121-2.52042-.43864-2.25418-1.254.29134-.89219.41871-1.76827.4609-3.16997.0265-.88177.12383-.9546.99953-.7482c1.409.33209,1.54108.54512,1.82361,2.94128.27892,2.36555.26207,2.40206-1.02986,2.23089Zm-54.652701-.65429c.01693-.41096.100521-.49456.213137-.21313.101907.25466.08937.55893-.02785.67615s-.200604-.0911-.185287-.46302Zm49.537421-.49976c.11992-.19403.28804-.35278.3736-.35278s.15557.15875.15557.35278-.16812.35277-.3736.35277-.27548-.15875-.15557-.35277Zm22.78974-1.30532c-1.17869-4.4374-2.12323-8.68676-1.98177-8.91566.0903-.14606.88006-.46602,1.75508-.71101c2.17895-.61007,3.36241.10282,3.37406,2.03248.004.72313.1014,2.84095.21562,4.70628l.20768,3.39149-1.00937.24123c-.55515.13268-1.27844.32099-1.6073.41847-.45288.13425-.6843-.14793-.954-1.16328Zm-66.347573-.79757c-.285422-.18051-.427107-.42004-.314854-.53229s.404905.0379.65034.33359c.508915.61321.411334.671-.335486.1987Zm70.953813-.36656c0-.48507.0801-.68351.17794-.44097s.0979.63941,0,.88194-.17794.0441-.17794-.44097ZM73.530922,157.3546c-1.356203-.74582-1.924367-1.8192-1.930682-3.64748-.0088-2.55506,1.015677-3.73676,3.441762-3.96988c1.716933-.16498,1.894989-.10294,3.066267,1.06834c1.713074,1.71307,1.806897,4.33268.212289,5.92729-1.118786,1.11879-3.357387,1.40937-4.789636.62173Zm3.731303-1.32729c2.04843-2.04843.864329-5.3188-1.925775-5.3188-2.580577,0-3.624079,3.351-1.656276,5.3188c1.304332,1.30434,2.277719,1.30434,3.582051,0Zm-2.055609-1.68813c-.610318-.22378-.555928-1.16123.06737-1.16123.641673,0,1.080952.67705.677999,1.04498-.167421.15287-.502838.20518-.745373.11625Zm6.301163,1.74919c.399326-1.19715.666198-1.47146.666198-.68479c0,.25396-.235944.7699-.52432,1.14653-.479691.6265-.491767.5872-.141878-.46174Zm-15.006292.30685c-.267369-.43261.174213-3.5432.534617-3.76594.157194-.0972.462267.15308.677942.55607.602003,1.12485-.575202,4.24113-1.212559,3.20987Zm-1.205141-.74782c0-.48507.08007-.68351.177936-.44097s.09786.63941,0,.88194-.177936.0441-.177936-.44097Zm77.261934-1.10243c-.0326-.70335-.13814-1.8146-.2345-2.46945l-.17519-1.19062.37078,1.18169c.20393.64993.30945,1.76118.2345,2.46945l-.13629,1.28775Zm2.52305-1.01424c0-1.26118.064-1.77712.14229-1.14653s.0782,1.66247,0,2.29306c-.0783.63059-.14229.11465-.14229-1.14653Zm-1.27915.98657c-.24525-1.03139-.6506-9.74944-.43134-9.27685.20339.43839.89873,9.81228.73966,9.97135-.0636.0636-.20237-.2489-.30832-.6945Zm-29.38256-.36921l-.67203-.79375.79375.67204c.74592.63155.95435.91546.67203.91546-.0669,0-.42413-.35718-.79375-.79375Zm3.86225.13514c-2.24072-1.40861-2.35128-5.07054-.20426-6.76547c1.51839-1.19867,4.43215-.8397,5.82345.71743c1.34557,1.50596,1.25414,4.10245-.19552,5.55211-1.23618,1.23618-3.86391,1.47646-5.42367.49593Zm4.71457-1.52165c.66089-.54849.55748-2.90921-.16483-3.76283-1.98808-2.34952-5.84328.12313-4.80561,3.08222.57892,1.65085,3.34499,2.02961,4.97044.68061Zm-2.82786-1.21773c-.6048-.60479-.24076-1.58903.54637-1.47724.5189.0737.79375.35537.79375.81346c0,.69977-.87215,1.13176-1.34012.66378Zm27.35113,2.33966c0-.6791.0726-.95691.16133-.61736s.0887.89517,0,1.23472-.16133.0617-.16133-.61736Zm-6.33576-.70556c0-.87312.0688-1.23031.15288-.79375s.0841,1.15094,0,1.5875-.15288.0794-.15288-.79375Zm4.69647-3.27861c-.16126-2.67637-.21059-4.94872-.10964-5.04967.24352-.24353.71593,7.50288.54016,8.85745-.0755.58208-.26927-1.13142-.43052-3.80778Zm3.878,1.07375c-.13736-1.98878-.32392-5.5899-.41459-8.00247l-.16484-4.38651.75814.68234c.93158.83843,2.35501,3.97278,2.8515,6.27895.39683,1.84322-.24638,5.46345-1.40082,7.88433-.96719,2.02823-1.36059,1.4351-1.62939-2.45664Zm-84.096224,2.38125c.0072-.58208.08625-.7775.175698-.43425s.08356.81949-.01307,1.05833-.169817-.042-.162628-.62408Zm-3.568701-1.08773c.01693-.41096.100521-.49456.213137-.21313.101907.25466.08937.55893-.02785.67615s-.200604-.0911-.185286-.46302Zm20.771123-.69154c-1.007002-1.03897-1.122965-1.30702-.686564-1.58706.934997-.59999,1.544393-.18909,1.987051,1.33981.527973,1.82358.274128,1.87184-1.300487.24725Zm44.682912.55079c1.23805-.50011,3.93403-.80369,4.4277-.49858.6599.40784-.83467.77176-3.23459.78759-1.41293.009-1.7372-.0692-1.19311-.28901Zm19.65047-2.12291c0-1.26118.064-1.77711.14228-1.14652s.0783,1.66246,0,2.29305-.14228.11465-.14228-1.14653Zm-35.47477,1.16161c.43882-.0844,1.07382-.0812,1.41111.007.33729.0883-.0218.15734-.79786.15342s-1.05208-.0762-.61325-.16054Zm33.00173-2.04355c.002-1.16417.0678-1.59789.14635-.96382s.0769,1.58656-.004,2.11667c-.0805.5301-.14473.0113-.14275-1.15285Zm-76.979181.94863c-.524013-.97912.181635-6.23084.938967-6.98817.678618-.67862,1.225219-.60781,1.007538.13051-.10011.33955-.34329,1.81859-.5404,3.28676s-.499099,3.04979-.671083,3.51471l-.3127.84531Zm60.476301-.75509c-.13044-.21105-.0564-.93157.16463-1.60117s.36425-1.49993.31836-1.84519.0892-1.02461.30014-1.50968.47239-1.16366.58093-1.50797c.21576-.68446.73205-.63956,3.82924.33305c1.73831.54588,1.82836.6819,2.12519,3.21009.17582,1.49754-.19849,1.76377-3.31932,2.36091-1.42927.27347-2.86042.59768-3.18034.72045s-.6884.0506-.81883-.16049Zm19.74332-4.3376c-.13893-2.59393-.18355-5.02454-.0991-5.40136s.28019,1.66335.43511,4.53372.19954,5.30098.0992,5.40136-.29619-1.93979-.43512-4.53372Zm-36.52109,3.60111c-.28542-.1805-1.03488-.33062-1.66547-.33359-1.25892-.006-1.56265-.6682-.44098-.96152.93582-.24472.88986-.60587-.16504-1.29707-.53253-.34892-.79186-.77566-.66781-1.09891.13462-.35081-.0174-.53223-.45232-.53968-.62533-.0107-.62398-.0348.0297-.52917c1.52171-1.15096,2.51728-.21919,3.71235,3.47444.48564,1.50095.41279,1.76817-.35041,1.2855Zm30.74993-.38309c-.0863-1.66271-.48164-3.1309-.84314-3.1309-.22058,0-.26934.69851-.12929,1.85208.20117,1.65717.1713,1.78339-.28386,1.19939-.27978-.35897-.67473-.55007-.87766-.42465-.40412.24975-1.81812-.38676-2.23022-1.00394-.5781-.86579-.26662-2.31438.62297-2.89726.49112-.3218.93618-.5239.98901-.44911s.27525.53286.49428,1.01793c.38051.8427.40085.81915.45727-.52917.0482-1.15142.10305-1.25362.29819-.55532.31933,1.14273,1.0137,1.32521,1.18368.31107.0751-.44774.26119.22619.41363,1.49762s.20428,2.70019.11518,3.175c-.16173.86184-.16208.86173-.21004-.0627Zm-70.432546-2.67345c.350138-3.26954.63371-3.84683,2.132605-4.34151c1.837196-.60633,2.066582-.22009,1.767131,2.9755-.218073,2.32716-.339163,2.67244-.937216,2.67244-.377733,0-1.255766.23774-1.951183.5283l-1.264396.5283Zm6.712799,1.89508c-.69478-.52036-.694901-.53152-.01403-1.28388.410812-.45394.547784-.85663.340823-1.002-.190313-.13367-.374214-.95742-.408671-1.83054s-.11056-1.82563-.169118-2.11667.05161-.60854.244823-.70556c.201622-.10123.459499.72543.605269,1.94028.388373,3.23673.636915,4.40972.934364,4.40972.462539,0,1.46572-2.42455,1.097373-2.6522-.43019-.26588-.282767-2.71945.186702-3.10729.228547-.18881.197489-.35445-.08819-.47037-.242535-.0984-.440972-.41706-.440972-.7081c0-.96664.880181-.25762.982648.79156.05539.56712.335731,2.21128.622985,3.6537s.394275,2.75057.237821,2.90703c-.59654.59654-3.40961.71522-4.131827.17432Zm35.488617-1.28143c-1.68502-3.91692-1.61366-4.04823,2.41551-4.44526l2.5268-.24898-.10947,1.72337c-.0936,1.47367-.22343,1.73957-.89592,1.83515-.43254.0615-1.32416.73998-1.98138,1.50779l-1.19493,1.39601Zm-47.242581.5164c.0072-.58209.08625-.7775.175698-.43426s.08356.81949-.01307,1.05833-.169818-.042-.162628-.62407Zm58.479251-.36855c-.25947-.31264-1.21676-.94595-2.1273-1.40736-1.36423-.69131-1.68737-1.0434-1.83641-2.00096-.25794-1.6572.0473-1.80018,3.24015-1.51755c3.22144.28516,3.15581.18853,2.37847,3.50193-.4437,1.89132-.92403,2.3046-1.65491,1.42394Zm21.64184-1.39534c.002-1.16417.0678-1.59789.14636-.96382s.0769,1.58656-.004,2.11666c-.0805.5301-.14474.0113-.14276-1.15284Zm-2.55091,1.02893c.0169-.41096.10053-.49456.21314-.21313.10191.25466.0894.55893-.0278.67615s-.2006-.0911-.18528-.46302Zm-1.38326-1.91088c0-.48507.0801-.6835.17794-.44097s.0979.63941,0,.88194-.17794.0441-.17794-.44097Zm1.38326.14699c.0169-.41096.10053-.49456.21314-.21313.10191.25466.0894.55893-.0278.67615s-.2006-.0911-.18528-.46302Zm-8.7591-3.31249c-1.65547-.75144-1.67072-.80218-1.09799-3.65398l.4013-1.99826.83342.89927c.93751,1.01159,1.03638,1.43359.39244,1.67498-.30551.11453-.22423.33685.26458.72374.38806.30713.56706.56347.39778.56964-.4247.0155.48527,1.06956.92334,1.06956.19679,0,.15859-.23399-.0864-.52917-.37443-.45116-.27678-.52917.66236-.52917c1.32253,0,1.45465.70186.32945,1.75015-.9428.87835-1.13322.87981-3.02029.0232Zm8.47456-.71505c0-.87313.0688-1.23032.15288-.79375s.0841,1.15093,0,1.5875-.15288.0794-.15288-.79375Zm-36.33351.48928c.31192-.31192,4.97456-1.53086,5.15719-1.34823.30004.30005-.27371.55992-2.31031,1.04642-2.25495.53865-3.18201.63693-2.84688.30181Zm38.77564-1.01845c.007-.58208.0863-.7775.1757-.43426s.0836.81949-.0131,1.05834c-.0966.23884-.1698-.042-.16261-.62408Zm-18.03753-.22412c-1.05456-.17492-1.99383-.39449-2.08727-.48793-.35078-.35078,2.29562-.0976,3.65186.34939c1.64127.54092,1.13278.58594-1.56459.13854Zm13.08557-.65782c0-.48507.0801-.68351.17794-.44098s.0979.63941,0,.88195-.17794.0441-.17794-.44097Zm-35.33681-.53794c-.45191-1.18862-.44644-1.22595.17972-1.22595.29105,0,.52917-.15377.52917-.34171s.25659-.24324.57021-.1229c.49093.18839.51148.10908.1478-.57045-.23232-.43409-.34302-.86864-.24601-.96565s.35359.15471.57016.55938c.99899,1.86663,1.21808-.44674.27725-2.92751-.44111-1.16312.27149-1.98116,1.72581-1.98116c1.00156,0,1.1925.32175,1.7603,2.96638.82211,3.82915.80432,3.87491-1.71871,4.41984-1.21268.26191-2.48418.61854-2.82556.79252-.49043.24993-.69403.12343-.97014-.60279Zm9.56616.57134c.86757-.55829,7.21372-.92527,7.51692-.43468.16916.2737-.19031.40128-1.1307.40128-.75829,0-2.63297.0896-4.16596.19913-1.98628.14191-2.62432.0943-2.22026-.16573Zm15.80313-1.24337c-.11351-.11351-1.36582-.35197-2.78291-.5299-2.90618-.36492-3.14914-.58641-3.10646-2.83198.0167-.88097-.0863-2.27645-.22908-3.10107l-.25952-1.49931h1.6185h1.61851v2.64584c0,2.83707.0127,2.86417,1.04309,2.2207.5965-.37252.65485-.7024.47151-2.66583l-.20924-2.24069l1.02301.22584c2.07362.45779,2.00516.3369,1.74545,3.082-.29745,3.14392-.65981,4.96744-.93286,4.6944Zm-16.49339-1.05761c-.40316-.54084-1.46423-4.61842-1.46423-5.62685c0-.9551.57678-1.2778,2.28388-1.2778c1.12737,0,1.18478.0694,1.65654,2.00231.72967,2.98966,1.51346,2.97827,1.19266-.0173l-.25035-2.33774h2.107c2.53138,0,2.53527.006,2.53527,4.18331v3.06727l-1.32292-.12008c-.7276-.066-2.47784.0206-3.8894.19255-1.76098.21451-2.65499.19392-2.84845-.0656Zm27.54539-.90742c0-.6791.0726-.95691.16133-.61737s.0887.89518,0,1.23473-.16133.0617-.16133-.61736Zm1.05833-.70556c0-.6791.0726-.95691.16134-.61736s.0887.89517,0,1.23472-.16134.0617-.16134-.61736Zm-37.77862.39142c-.30035-.19031-.39008-.58263-.24081-1.05293.24923-.78525-.12833-.99535-.72193-.40175-.22861.22862-.48123-.006-.73696-.68302-.38611-1.02292-.37964-1.03027.83848-.95234c1.33438.0854,2.31744,1.14517,1.51962,1.63825-.25805.15949-.33591.56811-.19365,1.01633.2646.83369.22391.87181-.46475.43546Zm31.11159-1.27336c0-.29105.13229-.52917.29399-.52917s.29398.23812.29398.52917-.1323.52916-.29398.52916-.29399-.23812-.29399-.52916Zm1.29352-.30819c0-.49206-.96173-1.01832-1.63916-.89694-1.08645.19467-1.57774-.0801-1.47218-.82335.24757-1.74315,3.8169-.8478,3.8169.95745c0,.46915-.15875.95111-.35278,1.07103s-.35278-.0188-.35278-.30819Z" fill="var(--svg-fill, #fff)" stroke-width="0.352778"/></g></g></g></svg>
